<?xml version="1.0" encoding="UTF-8" standalone="no"?>
<svg width="64px" height="57px" viewBox="0 0 64 57" version="1.1" xmlns="http://www.w3.org/2000/svg" xmlns:xlink="http://www.w3.org/1999/xlink" xmlns:sketch="http://www.bohemiancoding.com/sketch/ns">
    <!-- Generator: Sketch 3.4.4 (17249) - http://www.bohemiancoding.com/sketch -->
    <title>Fill 123</title>
    <desc>Created with Sketch.</desc>
    <defs></defs>
    <g id="Page-1" stroke="none" stroke-width="1" fill="none" fill-rule="evenodd" sketch:type="MSPage">
        <g id="Desktop-HD-Copy-2" sketch:type="MSArtboardGroup" transform="translate(-871.000000, -896.000000)" fill="#FFFFFF">
            <path d="M895.225,930.84 L921.004,929.13 L922.881,924.96 C925.7,924.8 928.321,923.93 930.566,922.5 L925.736,933.23 C925.292,934.22 924.332,934.92 923.2,934.99 L897.281,936.72 L898.779,941 L927,941 C930.314,941 933,943.69 933,947 C933,950.31 930.314,953 927,953 C923.687,953 921,950.31 921,947 L893,947 C893,950.31 890.314,953 887,953 C883.687,953 881,950.31 881,947 C881,943.69 883.687,941 887,941 L892.422,941 L880.872,908 L874,908 C872.344,908 871,906.66 871,905 C871,903.34 872.344,902 874,902 L883,902 C884.309,902 885.411,902.84 885.821,904.01 L885.832,904.01 L887.579,909 L906,909 C906,911.12 906.423,913.15 907.174,915 L889.679,915 L895.225,930.84 L895.225,930.84 Z M928,903 C927.172,903 926.422,903.34 925.879,903.88 L920,909.76 L918.122,907.88 C917.579,907.34 916.829,907 916,907 C914.344,907 913,908.34 913,910 C913,910.83 913.336,911.58 913.879,912.12 L917.879,916.12 C918.422,916.66 919.172,917 920,917 C920.829,917 921.579,916.66 922.122,916.12 L930.122,908.12 C930.665,907.58 931,906.83 931,906 C931,904.34 929.657,903 928,903 L928,903 Z M922,922 C914.821,922 909,916.18 909,909 C909,901.82 914.821,896 922,896 C929.18,896 935,901.82 935,909 C935,916.18 929.18,922 922,922 L922,922 Z" id="Fill-123" sketch:type="MSShapeGroup"></path>
        </g>
    </g>
</svg>