<?xml version="1.0" encoding="UTF-8" standalone="no"?>
<svg width="64px" height="54px" viewBox="0 0 64 54" version="1.1" xmlns="http://www.w3.org/2000/svg" xmlns:xlink="http://www.w3.org/1999/xlink" xmlns:sketch="http://www.bohemiancoding.com/sketch/ns">
    <!-- Generator: Sketch 3.4.4 (17249) - http://www.bohemiancoding.com/sketch -->
    <title>Fill 251</title>
    <desc>Created with Sketch.</desc>
    <defs></defs>
    <g id="Page-1" stroke="none" stroke-width="1" fill="none" fill-rule="evenodd" sketch:type="MSPage">
        <g id="Desktop-HD-Copy-2" sketch:type="MSArtboardGroup" transform="translate(-246.000000, -896.000000)" fill="#FFFFFF">
            <path d="M266,941 L260,941 C258.34,941 257,939.657 257,938 L257,932 C257,930.343 258.34,929 260,929 L266,929 C267.66,929 269,930.343 269,932 L269,938 C269,939.657 267.66,941 266,941 L266,941 Z M283,941 L277,941 C275.34,941 274,939.657 274,938 L274,905 C274,903.343 275.34,902 277,902 L283,902 C284.66,902 286,903.343 286,905 L286,938 C286,939.657 284.66,941 283,941 L283,941 Z M300,941 L294,941 C292.34,941 291,939.657 291,938 L291,917 C291,915.343 292.34,914 294,914 L300,914 C301.66,914 303,915.343 303,917 L303,938 C303,939.657 301.66,941 300,941 L300,941 Z M307,950 L249,950 C247.34,950 246,948.657 246,947 L246,899 C246,897.343 247.34,896 249,896 C250.66,896 252,897.343 252,899 L252,944 L307,944 C308.66,944 310,945.343 310,947 C310,948.657 308.66,950 307,950 L307,950 Z" id="Fill-251" sketch:type="MSShapeGroup"></path>
        </g>
    </g>
</svg>