<?xml version="1.0" encoding="UTF-8" standalone="no"?>
<svg width="58px" height="64px" viewBox="0 0 58 64" version="1.1" xmlns="http://www.w3.org/2000/svg" xmlns:xlink="http://www.w3.org/1999/xlink" xmlns:sketch="http://www.bohemiancoding.com/sketch/ns">
    <!-- Generator: Sketch 3.4.4 (17249) - http://www.bohemiancoding.com/sketch -->
    <title>Fill 236</title>
    <desc>Created with Sketch.</desc>
    <defs></defs>
    <g id="Page-1" stroke="none" stroke-width="1" fill="none" fill-rule="evenodd" sketch:type="MSPage">
        <g id="Desktop-HD-Copy-2" sketch:type="MSArtboardGroup" transform="translate(-665.000000, -892.000000)" fill="#FFFFFF">
            <path d="M679,904 C677.344,904 676.001,902.657 676.001,901 L676.001,895 C676.001,893.343 677.344,892 679,892 C680.657,892 682,893.343 682,895 L682,901 C682,902.657 680.657,904 679,904 L679,904 Z M694.001,904 C692.344,904 691.001,902.657 691.001,901 L691.001,895 C691.001,893.343 692.344,892 694.001,892 C695.657,892 697,893.343 697,895 L697,901 C697,902.657 695.657,904 694.001,904 L694.001,904 Z M709,904 C707.344,904 706,902.657 706,901 L706,895 C706,893.343 707.344,892 709,892 C710.657,892 712,893.343 712,895 L712,901 C712,902.657 710.657,904 709,904 L709,904 Z M712.5,941 L675.5,941 C674.12,941 673.001,942.119 673.001,943.5 C673.001,944.88 674.12,946 675.5,946 L712.5,946 C713.881,946 715,944.88 715,943.5 C715,942.119 713.881,941 712.5,941 L712.5,941 Z M712,928 L676.001,928 C674.344,928 673.001,929.343 673.001,931 C673.001,932.657 674.344,934 676.001,934 L712,934 C713.657,934 715,932.657 715,931 C715,929.343 713.657,928 712,928 L712,928 Z M712,915 L676.001,915 C674.344,915 673.001,916.343 673.001,918 C673.001,919.657 674.344,921 676.001,921 L712,921 C713.657,921 715,919.657 715,918 C715,916.343 713.657,915 712,915 L712,915 Z M720,956 L668,956 C666.344,956 665,954.657 665,953 L665,901 C665,899.343 666.344,898 668,898 L673.001,898 L673.001,901 C673.001,904.314 675.687,907 679,907 C682.314,907 685,904.314 685,901 L685,898 L688,898 L688,901 C688,904.314 690.687,907 694.001,907 C697.314,907 700,904.314 700,901 L700,898 L703,898 L703,901 C703,904.314 705.687,907 709,907 C712.314,907 715,904.314 715,901 L715,898 L720,898 C721.657,898 723,899.343 723,901 L723,953 C723,954.657 721.657,956 720,956 L720,956 Z" id="Fill-236" sketch:type="MSShapeGroup"></path>
        </g>
    </g>
</svg>