<?xml version="1.0" encoding="UTF-8" standalone="no"?>
<svg width="54px" height="62px" viewBox="0 0 54 62" version="1.1" xmlns="http://www.w3.org/2000/svg" xmlns:xlink="http://www.w3.org/1999/xlink" xmlns:sketch="http://www.bohemiancoding.com/sketch/ns">
    <!-- Generator: Sketch 3.4.4 (17249) - http://www.bohemiancoding.com/sketch -->
    <title>Fill 194</title>
    <desc>Created with Sketch.</desc>
    <defs></defs>
    <g id="Page-1" stroke="none" stroke-width="1" fill="none" fill-rule="evenodd" sketch:type="MSPage">
        <g id="Desktop-HD-Copy-2" sketch:type="MSArtboardGroup" transform="translate(-463.000000, -894.000000)" fill="#FFFFFF">
            <path d="M487.999,914.01 C486.343,914.01 485,912.66 485,911 L485,894 L485.039,894 L506.999,914.01 L487.999,914.01 L487.999,914.01 Z M500.999,932 L500.999,940.1 C500.672,940.05 500.342,940 499.999,940 C496.686,940 493.999,942.69 493.999,946 C493.999,947.66 494.671,949.16 495.757,950.24 L497.514,952 L465.999,952 C464.343,952 463,950.66 463,949 L463,897 C463,895.34 464.343,894 465.999,894 L482,894 L482,911 C482,914.32 484.686,917.01 487.999,917.01 L506.999,917.01 L506.999,926 C503.686,926 500.999,928.69 500.999,932 L500.999,932 Z M516.121,948.12 L509.121,955.12 C508.578,955.66 507.828,956 506.999,956 C506.171,956 505.421,955.66 504.878,955.12 L497.878,948.12 C497.335,947.58 496.999,946.83 496.999,946 C496.999,944.34 498.343,943 499.999,943 C500.828,943 501.578,943.34 502.121,943.88 L503.999,945.76 L503.999,932 C503.999,930.34 505.343,929 506.999,929 C508.656,929 509.999,930.34 509.999,932 L509.999,945.76 L511.878,943.88 C512.421,943.34 513.171,943 513.999,943 C515.656,943 516.999,944.34 516.999,946 C516.999,946.83 516.664,947.58 516.121,948.12 L516.121,948.12 Z" id="Fill-194" sketch:type="MSShapeGroup"></path>
        </g>
    </g>
</svg>