<?xml version="1.0" encoding="UTF-8" standalone="no"?>
<svg width="241px" height="166px" viewBox="0 0 241 166" version="1.1" xmlns="http://www.w3.org/2000/svg" xmlns:xlink="http://www.w3.org/1999/xlink" xmlns:sketch="http://www.bohemiancoding.com/sketch/ns">
    <!-- Generator: Sketch 3.4.4 (17249) - http://www.bohemiancoding.com/sketch -->
    <title>mexico</title>
    <desc>Created with Sketch.</desc>
    <defs></defs>
    <g id="Page-1" stroke="none" stroke-width="1" fill="none" fill-rule="evenodd" sketch:type="MSPage">
        <g id="Desktop-HD-Copy-2" sketch:type="MSArtboardGroup" transform="translate(-723.000000, -3919.000000)">
            <g id="mexico" sketch:type="MSLayerGroup" transform="translate(724.000000, 3920.000000)">
                <path d="M35.4787589,76.7026966 L32.9471719,74.7592414 L32.2696947,73.5380483 L35.4787589,76.7026966" id="Fill-67" fill="#FFFFFF" sketch:type="MSShapeGroup"></path>
                <path d="M29.7384732,44.1051379 L30.4159504,46.6824 L32.4048978,48.8071517 L32.9471719,50.5715034 L34.4844679,52.0617172 L35.026742,52.2879724 L35.026742,53.5994483 L35.5693815,54.7753172 L35.9307758,56.4029655 L36.6996065,57.1716483 L36.6996065,55.8605379 L36.3378468,54.9109241 L36.5633071,54.5486966 L38.2358062,56.2673586 L38.3267942,57.4424966 L38.8690683,57.9852897 L38.6425118,58.6633241 L39.4106116,60.2917034 L39.5922223,61.9189862 L39.0495828,63.0038414 L40.4958907,66.0328828 L41.6710615,66.8476207 L41.9867791,68.9266828 L43.4787637,71.8201172 L44.0214032,73.2668345 L43.524075,75.9797034 L44.0667146,77.7882828 L46.2361764,79.235 L46.778816,78.737531 L46.8687078,77.6515793 L47.7277957,77.8778345 L49.6261205,80.3648138 L50.4844775,80.6817172 L50.8009259,82.3093655 L51.479134,83.8916897 L53.3770934,86.2887517 L52.6093589,88.5491103 L50.7106687,89.8141655 L49.7160123,90.7645103 L49.0838464,90.8986552 L47.7727416,89.4976276 L46.7331392,85.0211379 L45.2868313,83.7557172 L43.7502662,82.806469 L39.2754085,78.2850207 L35.8854645,74.9854966 L35.4334476,74.9854966 L35.2076218,73.8549517 L34.6653477,74.2157172 L33.8968825,72.9053379 L33.2639857,72.6794483 L32.4958859,70.5086414 L33.4901769,64.5415724 L31.5918521,59.8395586 L30.4159504,59.2964 L24.0884446,53.9163517 L23.4102366,54.2321586 L22.2350657,54.2774828 L20.6082434,52.1984207 L19.6139524,51.8815172 L18.3934702,50.7973931 L16.2236429,49.6668483 L15.7712606,48.7625586 L12.3820474,44.467 L12.6988612,44.2864345 L15.0937834,44.8738207 L17.0374195,44.3313931 L17.8968728,45.3716552 L18.890433,45.5975448 L20.2011724,46.1399724 L20.4277289,45.4608414 L20.0659693,45.1457655 L19.1162587,44.9195103 L18.0320759,43.7432759 L18.9810556,42.8846759 L29.7384732,43.5627103 L29.7384732,44.1051379 Z" id="Fill-68" fill="#ED1E24" sketch:type="MSShapeGroup"></path>
                <path d="M17.8968728,9.24685517 L17.6699508,8.70406207 L15.7270455,7.12210345 L15.5008544,6.03651724 L16.1330203,3.64055172 L17.4894364,2.42045517 L18.9361097,3.14381379 L45.7392136,15.2146552 L61.9657799,15.9837034 L61.4231403,17.5207034 L62.1459289,17.8368759 L62.4174313,22.4040138 L63.2308425,27.061069 L62.7331489,32.8018828 L61.9657799,33.6612138 L62.1459289,39.3132069 L62.5073231,43.3360897 L62.0553062,43.7886 L59.253313,42.8397172 L58.2593874,43.9245724 L59.2989898,46.8629655 L60.9261775,49.5305103 L61.4684516,50.4804897 L61.513763,53.7357862 L62.6889338,55.1825034 L59.9311557,57.9396 L56.1798174,60.6078759 L55.999303,58.6633241 L54.5979409,56.900069 L53.4227701,57.2166069 L52.0214081,56.6745448 L51.2986195,54.0519586 L49.5808092,53.0120621 L48.3610578,52.6056069 L46.8241273,50.9772276 L46.2814877,48.0837931 L46.5975707,46.184931 L44.6996113,45.6874621 L44.2921749,45.9137172 L44.0667146,46.1399724 L42.845867,45.3716552 L41.444505,44.0152207 L40.2696995,41.4825517 L37.6032749,39.2221931 L36.744187,38.2725793 L36.744187,37.1877241 L34.9810653,34.8374483 L34.7552395,32.8472069 L33.6706913,32.1245793 L33.7160026,31.0393586 L31.1847811,26.2912897 L31.0941584,24.1219448 L30.2807473,22.0417862 L29.0606305,19.3289172 L29.4677015,16.7523862 L29.4677015,15.6668 L28.0659741,14.6725931 L27.0716831,14.5815793 L24.5404615,11.7787931 L23.4555479,11.236 L22.1451739,11.9593586 L19.568641,10.1058207 L17.8968728,9.24685517" id="Fill-69" fill="#ED1E24" sketch:type="MSShapeGroup"></path>
                <path d="M103.910536,38.2725793 L98.5765908,47.9931448 L100.61085,58.7093793 L96.4977515,57.8946414 L93.6047703,61.6020828 L92.3842881,60.9697379 L88.9943441,60.0201241 L87.4124677,60.3812552 L84.6557858,58.5284483 L84.0225236,58.7992966 L81.8530618,57.1716483 L81.0845965,57.7137103 L80.1356168,60.4262138 L79.1859063,61.0146966 L78.644363,61.5567586 L78.8248774,63.5013103 L78.101358,64.0433724 L77.7849097,65.6713862 L76.3839131,67.0727793 L73.4456205,67.5706138 L71.1405901,63.0038414 L69.8298507,62.7326276 L67.8862146,61.9635793 L67.5248203,58.7992966 L66.5301639,57.1716483 L66.4399067,55.9965103 L65.9433093,55.3181103 L64.0899304,54.5033724 L62.6889338,55.1825034 L61.513763,53.7357862 L61.4684516,50.4804897 L60.9261775,49.5305103 L59.2989898,46.8629655 L58.2593874,43.9245724 L59.253313,42.8397172 L62.0553062,43.7886 L62.5073231,43.3360897 L62.1459289,39.3132069 L61.9657799,33.6612138 L62.7331489,32.8018828 L63.2308425,27.061069 L62.4174313,22.4040138 L62.1459289,17.8368759 L61.4231403,17.5207034 L61.9657799,15.9837034 L66.7355265,16.1646345 L66.6660979,15.3053034 L66.7559897,12.4568276 L79.5933427,12.7276759 L81.627236,15.0340897 L83.3896269,16.6613724 L86.2376622,19.5551724 L88.1809329,21.4090759 L91.3899971,23.7600828 L92.2494504,26.3373448 L93.1527534,27.6480897 L93.2886873,30.3605931 L95.051809,33.1637448 L96.3614522,33.7968207 L98.079628,35.3334552 L99.3903674,35.4697931 L101.062501,36.7805379 L102.057157,37.0067931 L103.910536,38.2725793" id="Fill-70" fill="#FFFFFF" sketch:type="MSShapeGroup"></path>
                <path d="M131.030089,49.2139724 L129.040776,46.0496897 L127.369008,44.9195103 L127.052194,43.9245724 L124.159578,37.5492207 L121.220555,34.3392483 L117.696138,31.4465448 L114.984402,31.3551655 L111.729296,30.496931 L110.73537,31.4012207 L109.650457,31.4911379 L108.294771,32.3954276 L107.300115,35.0172828 L105.084976,38.1373379 L103.910536,38.2725793 L98.5765908,47.9931448 L100.61085,58.7093793 L103.593357,62.2801172 L102.91588,64.6771793 L102.961191,67.2990345 L101.876278,69.7860138 L102.057157,71.729469 L103.68398,73.448131 L103.68398,74.3524207 L106.982936,76.0246621 L108.339352,73.2218759 L110.057162,72.4988828 L113.538094,72.9963517 L116.521333,75.0754138 L116.746793,75.7084897 L118.554495,75.663531 L120.000438,75.7980414 L122.261253,77.8332414 L123.119976,77.6976345 L123.436424,75.3915862 L123.842399,74.306731 L123.210598,73.6732897 L123.391113,72.8146897 L126.012591,71.8201172 L126.464974,71.0514345 L125.74182,69.7860138 L123.345801,67.3889517 L123.029353,65.3098897 L121.673668,63.6369172 L120.949783,63.1855034 L120.182048,61.692731 L123.075395,59.0248207 L123.707926,59.3413586 L124.883097,58.0313448 L125.334749,56.4029655 L124.792109,55.6792414 L123.933021,55.6792414 L123.345801,54.6843034 L123.572358,53.8257034 L126.057537,52.4239448 L126.644757,50.4348 L127.956958,49.4402276 L129.357955,50.5250828 L131.030089,49.2139724" id="Fill-71" fill="#FFFFFF" sketch:type="MSShapeGroup"></path>
                <path d="M18.3934702,0.566186207 L17.4894364,2.42045517 L16.1330203,3.64055172 L15.5008544,6.03651724 L15.7270455,7.12210345 L17.6699508,8.70406207 L17.8968728,9.24685517 L17.7156275,9.11088276 L16.9471623,8.97564138 L15.90756,14.5815793 L16.1330203,15.8930552 L16.6763906,16.8879931 L17.1733534,24.167269 L18.3934702,26.4729517 L19.5233297,27.5578069 L22.6428675,30.9940345 L24.5404615,34.249331 L24.67603,35.2435379 L26.3028524,35.7859655 L27.2978742,39.3132069 L29.0606305,40.3980621 L29.4223902,42.2512345 L29.7384732,43.0199172 L29.7384732,43.5627103 L18.9810556,42.8846759 L19.2072468,41.8893724 L19.4783838,40.2628207 L20.2461183,38.6344414 L18.0320759,35.6960483 L16.4048882,33.7968207 L12.8786448,29.7728414 L11.3870256,28.6426621 L8.49404431,26.0204414 L8.49404431,25.1614759 L7.8618784,24.2575517 L7.90718971,21.2738345 L6.41557049,19.7814276 L6.14443343,15.9837034 L4.83369405,14.8981172 L4.69776011,12.7276759 L3.38665531,10.5576 L2.8443812,9.51806897 L2.75412398,8.43284828 L3.43233204,7.07677931 L2.88969251,6.03651724 L1.9403474,5.49408966 L1.35312739,3.32437931 L0.132279804,1.15393793 L0.35847096,0.294606897 L0.222902432,0.0233931034 L18.3934702,0.566186207 Z" id="Fill-72" fill="#ED1E24" sketch:type="MSShapeGroup"></path>
                <path d="M123.119976,77.6976345 L123.436424,75.3915862 L123.842399,74.306731 L123.210598,73.6732897 L123.391113,72.8146897 L126.012591,71.8201172 L126.464974,71.0514345 L125.74182,69.7860138 L123.345801,67.3889517 L123.029353,65.3098897 L121.673668,63.6369172 L120.949783,63.1855034 L120.182048,61.692731 L123.075395,59.0248207 L123.707926,59.3413586 L124.883097,58.0313448 L125.334749,56.4029655 L124.792109,55.6792414 L123.933021,55.6792414 L123.345801,54.6843034 L123.572358,53.8257034 L126.057537,52.4239448 L126.644757,50.4348 L127.956958,49.4402276 L129.357955,50.5250828 L131.030089,49.2139724 L131.526686,49.9826552 L130.261623,51.6099379 L130.487084,52.4689034 L131.571997,52.9214138 L131.707931,54.7299931 L131.753243,56.900069 L132.837425,57.5331448 L133.019036,58.8438897 L134.464613,59.3874138 L134.600913,61.4218828 L135.911286,62.0999172 L136.544549,63.7275655 L137.313014,63.8631724 L138.712549,64.7670966 L140.340833,64.3149517 L140.882742,64.8573793 L140.928784,67.6601655 L141.92344,69.5148 L141.109298,70.8255448 L138.396466,73.086269 L137.628731,72.769731 L136.860632,72.9506621 L136.453195,75.5282897 L135.369012,75.7534483 L132.882371,77.1552069 L132.340828,77.9688483 L133.19955,78.7824897 L133.063251,81.4047103 L134.012231,83.2582483 L132.565923,84.7959793 L131.255549,85.0211379 L130.713275,85.7912828 L130.713275,87.8250207 L129.629457,87.8250207 L129.131398,89.4534 L128.046485,89.3627517 L126.961571,89.8602207 L126.283728,89.4084414 L126.374351,85.1574759 L125.244492,83.6647034 L125.334749,81.1795517 L123.119976,77.6976345" id="Fill-73" fill="#FFFFFF" sketch:type="MSShapeGroup"></path>
                <path d="M151.730416,64.8124207 L152.318367,65.3552138 L150.961951,70.1018207 L149.651942,72.6794483 L148.431826,78.3307103 L148.205269,78.2400621 L149.244506,72.6794483 L150.284108,70.4640483 L149.787876,70.1018207 L149.425386,70.8255448 L148.476406,70.5086414 L147.708672,71.2773241 L148.023658,72.0463724 L147.708672,73.5380483 L148.567029,74.306731 L147.979078,75.301669 L148.069701,77.0196 L147.436438,78.1044552 L147.527792,78.4202621 L148.295892,78.8731379 L147.888455,80.8173241 L147.843875,86.1520483 L148.115012,90.7184552 L148.115012,92.6626414 L147.07541,94.9233655 L147.663726,97.1844552 L144.227009,96.1898828 L143.369748,96.7315793 L141.651207,96.6412966 L139.165297,97.1844552 L136.227004,96.0542759 L135.142821,94.4269931 L134.283733,94.2003724 L133.289442,94.8338138 L129.5392,93.0694621 L130.532395,91.6227448 L130.532395,90.989669 L129.131398,89.4534 L129.629457,87.8250207 L130.713275,87.8250207 L130.713275,85.7912828 L131.255549,85.0211379 L132.565923,84.7959793 L134.012231,83.2582483 L133.063251,81.4047103 L133.19955,78.7824897 L132.340828,77.9688483 L132.882371,77.1552069 L135.369012,75.7534483 L136.453195,75.5282897 L136.860632,72.9506621 L137.628731,72.769731 L138.396466,73.086269 L141.109298,70.8255448 L141.92344,69.5148 L140.928784,67.6601655 L140.882742,64.8573793 L140.340833,64.3149517 L138.712549,64.7670966 L137.313014,63.8631724 L136.544549,63.7275655 L135.911286,62.0999172 L134.600913,61.4218828 L134.464613,59.3874138 L133.019036,58.8438897 L132.837425,57.5331448 L131.753243,56.900069 L131.707931,54.7299931 L131.571997,52.9214138 L130.487084,52.4689034 L130.261623,51.6099379 L131.526686,49.9826552 L132.837425,50.4804897 L133.425011,51.4297379 L133.109659,52.6505655 L133.967285,54.2774828 L133.877759,55.363069 L135.730407,58.7093793 L136.770374,61.1952621 L139.030459,61.692731 L140.340833,62.7783172 L142.736486,63.1855034 L144.452835,64.3610069 L148.386514,64.6771793 L150.14854,65.6256966 L151.730416,64.8124207" id="Fill-74" fill="#FFFFFF" sketch:type="MSShapeGroup"></path>
                <path d="M180.115397,132.720407 L177.810732,133.850586 L176.048341,133.172552 L174.194596,130.414724 L172.883857,130.098552 L171.030844,128.922683 L165.92382,128.651469 L164.613081,127.566248 L162.081494,124.537938 L160.092181,120.106772 L157.245242,116.218034 L153.04079,110.384745 L151.188508,105.910083 L150.826748,105.458669 L149.560954,104.055448 L148.792124,101.478917 L150.871328,103.469159 L151.052574,105.141766 L151.09825,105.503262 L151.594848,105.458669 L151.821039,104.282434 L151.052574,103.287131 L148.611975,100.801248 L147.663726,97.1844552 L144.227009,96.1898828 L143.369748,96.7315793 L141.651207,96.6412966 L143.142826,98.2250828 L143.097149,98.9016552 L141.92344,100.438655 L142.465349,101.931428 L141.515638,103.377779 L142.1489,104.147559 L142.284469,105.638138 L143.052203,107.357166 L143.594112,107.672607 L144.318362,107.446352 L145.266977,108.215034 L144.725433,110.476855 L143.188868,110.476855 L142.420403,111.244441 L142.736486,112.24011 L142.374726,113.550855 L142.600917,114.274945 L142.915904,114.636076 L145.176719,112.87209 L145.899508,112.104503 L146.441782,112.646566 L146.262364,113.867028 L147.030464,113.415248 L147.618049,110.973593 L148.295892,110.657421 L148.838166,111.199483 L148.928058,111.877517 L150.510665,112.827131 L150.193851,113.686462 L148.883112,113.912717 L148.883112,115.450448 L150.193851,116.399331 L151.821039,115.54 L153.538849,116.353641 L153.855298,116.715503 L152.725073,118.344248 L152.725073,120.287338 L151.639794,121.417517 L152.860641,123.225731 L154.623398,124.310952 L154.805008,124.627855 L153.313024,125.395807 L153.990866,127.747545 L152.905587,127.972338 L152.905587,129.05829 L154.668709,129.917255 L154.850685,130.821545 L156.476776,130.596021 L156.928793,130.414724 L157.787881,131.183407 L158.466089,130.414724 L158.555616,129.781283 L159.957343,130.232697 L162.714025,133.534414 L165.201031,134.077207 L165.877778,135.614938 L165.245612,137.332503 L165.471072,138.190372 L166.69192,139.367703 L170.805383,137.603717 L171.211358,138.010538 L171.121832,139.231366 L172.659128,140.271628 L173.019791,141.492455 L176.138233,141.852855 L182.918121,141.808628 L184.364429,140.180248 L184.816445,139.546807 L184.364429,138.868772 L184.364429,138.688207 L182.963432,136.834669 L181.698369,136.157366 L180.613821,135.25271 L180.749024,134.348421 L180.115397,132.720407" id="Fill-75" fill="#FFFFFF" sketch:type="MSShapeGroup"></path>
                <path d="M129.131398,89.4534 L130.532395,90.989669 L130.532395,91.6227448 L129.5392,93.0694621 L133.289442,94.8338138 L134.283733,94.2003724 L135.142821,94.4269931 L136.227004,96.0542759 L139.165297,97.1844552 L141.651207,96.6412966 L143.142826,98.2250828 L143.097149,98.9016552 L141.92344,100.438655 L142.465349,101.931428 L141.515638,103.377779 L142.1489,104.147559 L142.284469,105.638138 L141.425016,107.402124 L139.798924,107.626917 L139.030459,106.950345 L137.719354,106.407552 L137.086092,104.824862 L136.092166,103.739641 L134.238787,105.277372 L132.520977,104.552917 L131.662985,105.3216 L126.555231,103.513386 L124.928043,104.914779 L123.933021,104.50869 L121.718979,102.699745 L120.543808,102.699745 L119.458895,101.840779 L117.560204,101.659483 L118.781052,100.078986 L118.735741,98.4498759 L119.188123,96.1898828 L118.735741,95.1050276 L117.560204,95.0143793 L116.023639,96.3243931 L115.616568,96.3243931 L112.001164,92.5730897 L111.865595,90.8540621 L111.322956,89.7695724 L112.272301,88.3674483 L112.905198,88.2318414 L116.06895,85.7912828 L119.594098,82.626269 L120.769999,80.8622828 L123.119976,77.6976345 L125.334749,81.1795517 L125.244492,83.6647034 L126.374351,85.1574759 L126.283728,89.4084414 L126.961571,89.8602207 L128.046485,89.3627517 L129.131398,89.4534" id="Fill-76" fill="#FFFFFF" sketch:type="MSShapeGroup"></path>
                <path d="M108.339352,73.2218759 L109.560199,76.6127793 L109.334374,78.4663172 L103.187382,78.8731379 L98.8930391,82.0838414 L98.7128901,85.7912828 L96.8591458,87.735469 L96.1359918,90.1314345 L95.7292863,90.7645103 L94.8705638,96.8671862 L94.7799412,97.5006276 L97.7182337,96.4157724 L97.1755942,95.1942138 L97.7631796,93.7029034 L98.6672134,94.3352483 L98.1249393,97.2743724 L98.5765908,97.8178966 L99.661139,95.2852276 L100.113521,95.6920483 L100.022899,99.3084759 L100.565173,99.6253793 L102.282983,97.4545724 L102.91588,96.3704483 L104.45281,97.8178966 L104.543433,98.5854828 L101.017555,102.338979 L101.243746,103.287131 L100.836675,104.373083 L99.5259359,104.824862 L99.4353133,107.220828 L104.045739,108.577993 L104.679367,108.577993 L104.859516,106.859697 L106.712895,106.723724 L108.113892,105.548221 L108.339352,104.552917 L107.571252,103.694683 L106.848463,101.298352 L107.752132,100.438655 L108.47492,100.3502 L108.701112,99.6707034 L108.294771,98.5854828 L108.429975,97.9527724 L109.741079,97.4545724 L110.825993,96.3704483 L112.995089,98.134069 L113.266957,98.9923034 L114.396451,100.485076 L114.576966,100.258821 L117.514893,101.659483 L117.560204,101.659483 L118.781052,100.078986 L118.735741,98.4498759 L119.188123,96.1898828 L118.735741,95.1050276 L117.560204,95.0143793 L116.023639,96.3243931 L115.616568,96.3243931 L112.001164,92.5730897 L111.865595,90.8540621 L111.322956,89.7695724 L112.272301,88.3674483 L112.905198,88.2318414 L116.06895,85.7912828 L119.594098,82.626269 L120.769999,80.8622828 L123.119976,77.6976345 L122.261253,77.8332414 L120.000438,75.7980414 L118.554495,75.663531 L116.746793,75.7084897 L116.521333,75.0754138 L113.538094,72.9963517 L110.057162,72.4988828 L108.339352,73.2218759" id="Fill-77" fill="#FFFFFF" sketch:type="MSShapeGroup"></path>
                <path d="M73.4456205,67.5706138 L76.3839131,67.0727793 L77.7849097,65.6713862 L78.101358,64.0433724 L78.8248774,63.5013103 L78.644363,61.5567586 L79.1859063,61.0146966 L80.1356168,60.4262138 L81.0845965,57.7137103 L81.8530618,57.1716483 L84.0225236,58.7992966 L84.6557858,58.5284483 L87.4124677,60.3812552 L88.9943441,60.0201241 L92.3842881,60.9697379 L93.6047703,61.6020828 L96.4977515,57.8946414 L100.61085,58.7093793 L103.593357,62.2801172 L102.91588,64.6771793 L102.961191,67.2990345 L101.876278,69.7860138 L102.057157,71.729469 L103.68398,73.448131 L103.68398,74.3524207 L106.982936,76.0246621 L108.339352,73.2218759 L109.560199,76.6127793 L109.334374,78.4663172 L103.187382,78.8731379 L98.8930391,82.0838414 L98.7128901,85.7912828 L96.8591458,87.735469 L96.1359918,90.1314345 L95.7292863,90.7645103 L94.8705638,96.8671862 L94.0111105,96.3243931 L93.1527534,96.6873517 L91.8423794,95.3755103 L91.8423794,94.9233655 L90.6672086,94.6982069 L89.6729176,94.9233655 L89.2658466,94.7428 L89.5369836,93.7939172 L89.9436892,92.5263034 L88.6782611,91.3069379 L85.7399686,90.5382552 L83.5255608,88.0962345 L83.2997351,86.1070897 L82.1695101,83.7557172 L81.8530618,81.0428483 L79.3218402,78.7824897 L77.921209,79.6421862 L76.9265526,79.0087448 L76.2483445,76.6127793 L73.8526915,74.2617724 L72.7681433,70.8255448 L73.4456205,67.5706138" id="Fill-78" fill="#FFFFFF" sketch:type="MSShapeGroup"></path>
                <path d="M84.1584576,95.4654276 L83.0735439,95.2391724 L81.627236,93.0694621 L80.7232022,92.2104966 L80.949028,91.6688 L75.9322616,86.3783034 L73.4916627,82.5356207 L72.6325748,80.9978897 L70.3275444,79.8669793 L69.0164396,77.2458552 L67.5701317,77.2458552 L65.9433093,75.5282897 L65.8073754,74.306731 L65.1744786,73.086269 L65.1744786,72.407869 L63.0050168,71.0064759 L61.4231403,69.8306069 L59.8862098,68.3392966 L59.1626904,67.5706138 L58.6204163,68.3392966 L55.7734772,66.7555103 L55.3664062,66.6663241 L55.3664062,65.8972759 L54.552995,64.2696276 L55.0952692,62.7326276 L56.27044,61.2859103 L56.1798174,60.6078759 L59.9311557,57.9396 L62.6889338,55.1825034 L64.0899304,54.5033724 L65.9433093,55.3181103 L66.4399067,55.9965103 L66.5301639,57.1716483 L67.5248203,58.7992966 L67.8862146,61.9635793 L69.8298507,62.7326276 L71.1405901,63.0038414 L73.4456205,67.5706138 L72.7681433,70.8255448 L73.8526915,74.2617724 L76.2483445,76.6127793 L76.9265526,79.0087448 L77.921209,79.6421862 L79.3218402,78.7824897 L81.8530618,81.0428483 L82.1695101,83.7557172 L83.2997351,86.1070897 L83.5255608,88.0962345 L85.7399686,90.5382552 L85.2883171,91.0806828 L85.4235202,92.029931 L84.4295946,93.0694621 L85.2433712,94.4269931 L85.01718,95.1050276 L84.1584576,95.4654276" id="Fill-79" fill="#ED1E24" sketch:type="MSShapeGroup"></path>
                <path d="M84.1584576,95.4654276 L85.01718,95.1050276 L85.2433712,94.4269931 L84.4295946,93.0694621 L85.4235202,92.029931 L85.2883171,91.0806828 L85.7399686,90.5382552 L88.6782611,91.3069379 L89.9436892,92.5263034 L89.5369836,93.7939172 L89.2658466,94.7428 L89.6729176,94.9233655 L90.6672086,94.6982069 L91.8423794,94.9233655 L91.8423794,95.3755103 L93.1527534,96.6873517 L94.0111105,96.3243931 L94.8705638,96.8671862 L94.7799412,97.5006276 L94.1919903,99.4897724 L94.8256179,100.845476 L96.0004233,102.2476 L95.6386636,104.418041 L97.2662168,106.04569 L95.6386636,107.583421 L95.1870122,107.672607 L94.6896839,111.2894 L94.5994267,111.471428 L92.2940309,109.70671 L90.6672086,108.803517 L87.7738619,109.843779 L86.7799363,111.922476 L85.1520177,110.837986 L84.5198518,110.657421 L84.9269228,109.799186 L86.463488,108.531572 L86.9608162,107.040993 L87.2772645,104.870552 L85.4235202,103.423469 L83.7513866,99.4897724 L83.931901,98.5854828 L84.9715033,99.534731 L85.2883171,99.2185586 L84.0225236,97.3204276 L84.1584576,95.4654276" id="Fill-80" fill="#FFFFFF" sketch:type="MSShapeGroup"></path>
                <path d="M91.8423794,125.395807 L93.1980647,123.995145 L94.0571526,123.995145 L96.0906805,122.321076 L96.9943489,123.000207 L98.2151965,123.317841 L99.6158277,122.502372 L100.791364,123.7232 L101.107447,127.52129 L101.695763,127.295766 L102.735365,126.434607 L103.187382,126.753703 L104.498122,126.933538 L105.58267,125.395807 L108.294771,124.627855 L108.701112,123.225731 L108.384663,122.773952 L107.435683,122.6844 L106.622272,120.830497 L107.255169,119.337724 L107.028978,118.886676 L105.627981,118.796028 L104.859516,118.433434 L104.768893,117.799993 L105.356844,116.941393 L106.892679,116.941393 L107.977592,116.173807 L109.830971,115.495407 L112.859155,114.500469 L113.627986,113.323869 L112.905198,111.017821 L114.848834,108.034469 L116.113896,107.175869 L117.017565,106.316903 L116.656901,104.914779 L117.199175,104.147559 L117.062876,102.29329 L117.560204,101.659483 L117.514893,101.659483 L114.576966,100.258821 L114.396451,100.485076 L111.684715,103.559076 L110.012216,103.105834 L108.701112,102.699745 L108.47492,100.3502 L107.752132,100.438655 L106.848463,101.298352 L107.571252,103.694683 L108.339352,104.552917 L108.113892,105.548221 L106.712895,106.723724 L104.859516,106.859697 L104.679367,108.577993 L104.045739,108.577993 L99.4353133,107.220828 L99.5259359,104.824862 L100.836675,104.373083 L101.243746,103.287131 L101.017555,102.338979 L104.543433,98.5854828 L104.45281,97.8178966 L102.91588,96.3704483 L102.282983,97.4545724 L100.565173,99.6253793 L100.022899,99.3084759 L100.113521,95.6920483 L99.661139,95.2852276 L98.5765908,97.8178966 L98.1249393,97.2743724 L98.6672134,94.3352483 L97.7631796,93.7029034 L97.1755942,95.1942138 L97.7182337,96.4157724 L94.7799412,97.5006276 L94.1919903,99.4897724 L94.8256179,100.845476 L96.0004233,102.2476 L95.6386636,104.418041 L97.2662168,106.04569 L95.6386636,107.583421 L95.1870122,107.672607 L94.6896839,111.2894 L94.5994267,111.471428 L92.2940309,109.70671 L90.6672086,108.803517 L87.7738619,109.843779 L86.7799363,111.922476 L86.327554,113.008428 L84.7453122,113.459476 L83.2540583,114.002269 L83.5701413,114.997938 L84.5651631,117.799993 L89.0849667,124.040103 L91.8423794,125.395807" id="Fill-81" stroke="#A12121" fill="#ED1E24" sketch:type="MSShapeGroup"></path>
                <path d="M112.859155,114.500469 L113.627986,113.323869 L112.905198,111.017821 L114.848834,108.034469 L116.113896,107.175869 L117.017565,106.316903 L116.656901,104.914779 L117.199175,104.147559 L117.062876,102.29329 L117.560204,101.659483 L119.458895,101.840779 L120.543808,102.699745 L121.718979,102.699745 L123.933021,104.50869 L124.928043,104.914779 L126.555231,103.513386 L131.662985,105.3216 L132.294786,106.723724 L131.842769,107.492772 L130.216312,107.719028 L129.853822,108.351007 L128.860992,109.661752 L126.374351,109.933697 L125.199911,111.968166 L125.968011,112.962738 L127.503845,116.761193 L126.780691,118.162586 L125.832077,118.929441 L124.520972,118.389207 L123.210598,118.840255 L122.351876,117.982021 L120.995094,117.348945 L119.188123,117.891372 L118.599807,117.573738 L118.057533,115.856172 L117.199175,115.224193 L116.204884,116.082428 L114.803157,116.308683 L113.944069,115.99251 L113.853812,115.224193 L112.859155,114.500469" id="Fill-82" fill="#FFFFFF" sketch:type="MSShapeGroup"></path>
                <path d="M114.396451,100.485076 L111.684715,103.559076 L110.012216,103.105834 L108.701112,102.699745 L108.47492,100.3502 L108.701112,99.6707034 L108.294771,98.5854828 L108.429975,97.9527724 L109.741079,97.4545724 L110.825993,96.3704483 L112.995089,98.134069 L113.266957,98.9923034 L114.396451,100.485076" id="Fill-83" fill="#FFFFFF" sketch:type="MSShapeGroup"></path>
                <path d="M129.131398,118.614 L130.442138,116.941393 L130.532395,116.262993 L131.526686,115.946821 L131.753243,114.952979 L131.753243,113.686462 L133.425011,112.737214 L133.74219,112.330028 L133.74219,111.109931 L135.50385,109.390903 L135.866341,107.763255 L137.944449,107.492772 L137.719354,106.407552 L137.086092,104.824862 L136.092166,103.739641 L134.238787,105.277372 L132.520977,104.552917 L131.662985,105.3216 L132.294786,106.723724 L131.842769,107.492772 L130.216312,107.719028 L129.853822,108.351007 L128.860992,109.661752 L126.374351,109.933697 L125.199911,111.968166 L125.968011,112.962738 L127.503845,116.761193 L129.131398,118.614" id="Fill-84" fill="#FFFFFF" sketch:type="MSShapeGroup"></path>
                <path d="M142.284469,105.638138 L143.052203,107.357166 L143.594112,107.672607 L144.318362,107.446352 L145.266977,108.215034 L144.725433,110.476855 L143.188868,110.476855 L142.420403,111.244441 L142.736486,112.24011 L142.374726,113.550855 L142.600917,114.274945 L142.915904,114.636076 L145.176719,112.87209 L145.899508,112.104503 L146.441782,112.646566 L146.262364,113.867028 L145.493899,115.179234 L145.945185,116.895703 L144.99584,118.523352 L145.35833,120.604241 L144.047225,120.783345 L143.730046,121.236221 L141.60553,121.371828 L141.651207,120.739848 L141.109298,119.56471 L139.572733,119.56471 L138.849214,119.337724 L138.849214,118.026979 L138.306574,117.710807 L136.453195,118.162586 L135.774622,119.653897 L131.526686,115.946821 L131.753243,114.952979 L131.753243,113.686462 L133.425011,112.737214 L133.74219,112.330028 L133.74219,111.109931 L135.50385,109.390903 L135.866341,107.763255 L137.944449,107.492772 L137.719354,106.407552 L139.030459,106.950345 L139.798924,107.626917 L141.425016,107.402124 L142.284469,105.638138" id="Fill-85" fill="#FFFFFF" sketch:type="MSShapeGroup"></path>
                <path d="M157.787881,131.183407 L157.290918,132.720407 L155.255929,134.16749 L153.403646,134.077207 L151.86635,135.388317 L151.09825,135.072145 L150.238797,133.353848 L150.012971,132.901338 L149.469966,133.036945 L149.15498,134.439069 L149.290548,135.614938 L148.521718,135.930379 L147.436438,135.388317 L144.498511,136.518497 L143.504586,135.794772 L141.019041,135.704124 L138.622657,133.534414 L138.532034,132.675448 L139.572733,131.681241 L141.425016,131.363607 L141.109298,129.873393 L141.515638,129.194628 L141.289813,128.335662 L141.560219,127.295766 L141.60553,127.023821 L141.696518,122.909559 L142.871324,123.180772 L144.408254,125.033945 L145.584156,125.893641 L146.804273,125.033945 L147.663726,124.898338 L150.14854,123.813848 L149.742565,123.3628 L148.205269,122.729359 L148.159958,121.825069 L147.527792,121.191628 L145.35833,120.604241 L144.99584,118.523352 L145.945185,116.895703 L145.493899,115.179234 L146.262364,113.867028 L147.030464,113.415248 L147.618049,110.973593 L148.295892,110.657421 L148.838166,111.199483 L148.928058,111.877517 L150.510665,112.827131 L150.193851,113.686462 L148.883112,113.912717 L148.883112,115.450448 L150.193851,116.399331 L151.821039,115.54 L153.538849,116.353641 L153.855298,116.715503 L152.725073,118.344248 L152.725073,120.287338 L151.639794,121.417517 L152.860641,123.225731 L154.623398,124.310952 L154.805008,124.627855 L153.313024,125.395807 L153.990866,127.747545 L152.905587,127.972338 L152.905587,129.05829 L154.668709,129.917255 L154.850685,130.821545 L156.476776,130.596021 L156.928793,130.414724 L157.787881,131.183407" id="Fill-86" fill="#FFFFFF" sketch:type="MSShapeGroup"></path>
                <path d="M141.60553,121.371828 L143.730046,121.236221 L144.047225,120.783345 L145.35833,120.604241 L147.527792,121.191628 L148.159958,121.825069 L148.205269,122.729359 L149.742565,123.3628 L150.14854,123.813848 L147.663726,124.898338 L146.804273,125.033945 L145.584156,125.893641 L144.408254,125.033945 L142.871324,123.180772 L141.696518,122.909559 L141.469596,122.59229 L141.60553,121.371828" id="Fill-87" fill="#FFFFFF" sketch:type="MSShapeGroup"></path>
                <path d="M136.680117,121.644503 L135.955867,124.492248 L136.498872,125.351579 L137.809611,126.075669 L138.985513,126.075669 L138.667968,123.451986 L138.080748,122.276117 L136.680117,121.644503" id="Fill-88" fill="#FFFFFF" sketch:type="MSShapeGroup"></path>
                <path d="M134.238787,129.555759 L135.142821,131.002841 L136.001544,131.545634 L136.770374,130.867234 L137.313014,131.002841 L138.532034,132.675448 L139.572733,131.681241 L141.425016,131.363607 L141.109298,129.873393 L141.515638,129.194628 L141.289813,128.335662 L141.560219,127.295766 L139.753978,126.707283 L138.985513,126.075669 L137.809611,126.075669 L136.498872,125.351579 L135.730407,126.301193 L135.774622,127.52129 L134.238787,129.555759" id="Fill-89" fill="#FFFFFF" sketch:type="MSShapeGroup"></path>
                <path d="M138.985513,126.075669 L138.667968,123.451986 L138.080748,122.276117 L136.680117,121.644503 L135.955867,124.492248 L136.498872,125.351579 L135.730407,126.301193 L135.774622,127.52129 L134.238787,129.555759 L132.837425,129.238855 L131.526686,130.369766 L130.126055,130.369766 L128.136742,132.133752 L127.45963,132.043103 L125.922334,128.470172 L125.470317,128.244283 L128.227365,123.858807 L128.99583,122.909559 L129.17671,119.834828 L129.629457,119.202117 L129.131398,118.614 L130.442138,116.941393 L130.532395,116.262993 L131.526686,115.946821 L135.774622,119.653897 L136.453195,118.162586 L138.306574,117.710807 L138.849214,118.026979 L138.849214,119.337724 L139.572733,119.56471 L141.109298,119.56471 L141.651207,120.739848 L141.60553,121.371828 L141.469596,122.59229 L141.696518,122.909559 L141.60553,127.023821 L141.560219,127.295766 L139.753978,126.707283 L138.985513,126.075669" id="Fill-90" fill="#FFFFFF" sketch:type="MSShapeGroup"></path>
                <path d="M112.272301,136.382159 L112.813844,134.259234 L114.984402,133.353848 L114.622643,131.726931 L115.616568,131.0478 L118.103209,132.043103 L120.904837,131.319014 L122.351876,132.0866 L122.758216,131.861807 L124.746798,132.177979 L123.842399,129.329503 L124.06859,128.244283 L124.295512,128.470172 L124.701852,128.787076 L125.470317,128.244283 L125.922334,128.470172 L127.45963,132.043103 L128.136742,132.133752 L130.126055,130.369766 L131.526686,130.369766 L132.837425,129.238855 L134.238787,129.555759 L135.142821,131.002841 L136.001544,131.545634 L136.770374,130.867234 L137.313014,131.002841 L138.532034,132.675448 L138.622657,133.534414 L141.019041,135.704124 L143.504586,135.794772 L144.498511,136.518497 L144.227009,140.13529 L145.221665,142.17049 L145.674778,143.030186 L147.07541,144.023662 L146.578812,147.187214 L145.266977,147.821752 L144.951259,148.997621 L145.085731,149.539317 L143.006892,150.624538 L140.83743,148.724945 L139.210608,148.724945 L136.04722,147.911669 L132.385774,146.962055 L130.487084,145.243759 L128.543813,145.018966 L121.175974,142.17049 L116.339722,138.642517 L114.124949,136.382159 L112.950143,136.110945 L112.272301,136.382159" id="Fill-91" fill="#FFFFFF" sketch:type="MSShapeGroup"></path>
                <path d="M112.272301,136.382159 L112.813844,134.259234 L114.984402,133.353848 L114.622643,131.726931 L115.616568,131.0478 L118.103209,132.043103 L120.904837,131.319014 L122.351876,132.0866 L122.758216,131.861807 L124.746798,132.177979 L123.842399,129.329503 L124.06859,128.244283 L124.295512,128.470172 L124.701852,128.787076 L125.470317,128.244283 L128.227365,123.858807 L128.99583,122.909559 L129.17671,119.834828 L129.629457,119.202117 L129.131398,118.614 L127.503845,116.761193 L126.780691,118.162586 L125.832077,118.929441 L124.520972,118.389207 L123.210598,118.840255 L122.351876,117.982021 L120.995094,117.348945 L119.188123,117.891372 L118.599807,117.573738 L118.057533,115.856172 L117.199175,115.224193 L116.204884,116.082428 L114.803157,116.308683 L113.944069,115.99251 L113.853812,115.224193 L112.859155,114.500469 L109.830971,115.495407 L107.977592,116.173807 L106.892679,116.941393 L105.356844,116.941393 L104.768893,117.799993 L104.859516,118.433434 L105.627981,118.796028 L107.028978,118.886676 L107.255169,119.337724 L106.622272,120.830497 L107.435683,122.6844 L108.384663,122.773952 L108.701112,123.225731 L108.294771,124.627855 L105.58267,125.395807 L104.498122,126.933538 L103.187382,126.753703 L102.735365,126.434607 L101.695763,127.295766 L101.107447,127.52129 L100.203779,127.837462 L98.7128901,130.007903 L101.107447,132.947028 L111.503836,136.654103 L112.272301,136.382159" id="Fill-92" fill="#FFFFFF" sketch:type="MSShapeGroup"></path>
                <path d="M101.107447,127.52129 L100.791364,123.7232 L99.6158277,122.502372 L98.2151965,123.317841 L96.9943489,123.000207 L96.0906805,122.321076 L94.0571526,123.995145 L93.1980647,123.995145 L91.8423794,125.395807 L93.1980647,126.075669 L97.7182337,128.742848 L98.7128901,130.007903 L100.203779,127.837462 L101.107447,127.52129" id="Fill-93" fill="#FFFFFF" sketch:type="MSShapeGroup"></path>
                <path d="M144.498511,136.518497 L144.227009,140.13529 L145.221665,142.17049 L145.674778,143.030186 L147.07541,144.023662 L146.578812,147.187214 L145.266977,147.821752 L144.951259,148.997621 L145.085731,149.539317 L143.006892,150.624538 L145.674778,151.528828 L147.843875,152.884531 L149.651942,153.517972 L155.301606,153.7 L155.753988,154.467586 L157.380079,155.19131 L160.138223,156.2758 L161.855668,156.004586 L169.53959,153.020503 L173.291293,149.268103 L174.239908,148.862014 L175.234564,149.268103 L175.098996,149.629234 L176.545304,150.443972 L178.173222,150.53389 L178.579197,149.90191 L181.201407,150.715917 L181.516759,149.85549 L180.749024,148.048007 L181.246718,145.741959 L182.240643,144.293779 L182.646984,142.1248 L182.918121,141.808628 L176.138233,141.852855 L173.019791,141.492455 L172.659128,140.271628 L171.121832,139.231366 L171.211358,138.010538 L170.805383,137.603717 L166.69192,139.367703 L165.471072,138.190372 L165.245612,137.332503 L165.877778,135.614938 L165.201031,134.077207 L162.714025,133.534414 L159.957343,130.232697 L158.555616,129.781283 L158.466089,130.414724 L157.787881,131.183407 L157.290918,132.720407 L155.255929,134.16749 L153.403646,134.077207 L151.86635,135.388317 L151.09825,135.072145 L150.238797,133.353848 L150.012971,132.901338 L149.469966,133.036945 L149.15498,134.439069 L149.290548,135.614938 L148.521718,135.930379 L147.436438,135.388317 L144.498511,136.518497" id="Fill-94" fill="#FFFFFF" sketch:type="MSShapeGroup"></path>
                <path d="M180.115397,132.720407 L183.958819,130.867234 L187.392978,130.14351 L188.070821,130.505372 L189.472183,129.825876 L192.093662,128.832034 L193.585646,127.837462 L194.443273,128.832034 L196.070826,128.876993 L196.206394,128.876993 L196.749034,130.505372 L197.110794,132.043103 L199.280621,133.534414 L200.908174,133.398807 L201.7658,132.312855 L203.619179,132.63049 L206.557837,133.036945 L206.873555,134.212448 L207.009123,139.005841 L203.891412,139.45689 L202.263494,137.737862 L201.585651,137.737862 L200.998797,136.337931 L200.274546,135.794772 L200.139343,135.025724 L198.828239,134.39411 L197.969516,134.39411 L196.884602,135.388317 L194.851074,136.292972 L191.957362,139.231366 L189.788631,136.880359 L189.969511,134.936538 L187.573858,134.077207 L186.53389,137.106614 L184.816445,139.546807 L184.364429,138.868772 L184.364429,138.688207 L182.963432,136.834669 L181.698369,136.157366 L180.613821,135.25271 L180.749024,134.348421 L180.115397,132.720407" id="Fill-95" fill="#FFFFFF" sketch:type="MSShapeGroup"></path>
                <path d="M209.541076,107.040993 L209.043382,110.883676 L209.72159,115.269152 L207.913157,117.303986 L207.913157,120.016124 L207.280626,121.417517 L203.619179,124.4016 L202.44547,125.577834 L203.80079,126.978497 L203.664856,127.431372 L201.720854,128.922683 L199.008753,129.420152 L198.693035,128.787076 L197.607026,128.425579 L198.060139,127.476331 L197.517499,127.159428 L193.585646,127.837462 L194.443273,128.832034 L196.070826,128.876993 L196.206394,128.876993 L196.749034,130.505372 L197.110794,132.043103 L199.280621,133.534414 L200.908174,133.398807 L201.7658,132.312855 L203.619179,132.63049 L206.557837,133.036945 L206.873555,134.212448 L221.655275,132.946297 L221.123232,125.301138 L220.767684,115.344448 L213.473294,110.748069 L212.614206,110.521814 L210.354852,109.753131 L209.541076,107.040993" id="Fill-96" fill="#FFFFFF" sketch:type="MSShapeGroup"></path>
                <path d="M209.541076,107.040993 L210.624528,105.185993 L214.828614,102.88031 L215.687701,102.745434 L223.597814,100.665641 L225.314529,99.3991241 L233.044858,99.714931 L233.089804,104.147559 L231.010234,107.492772 L220.767684,115.344448 L213.473294,110.748069 L212.614206,110.521814 L210.354852,109.753131 L209.541076,107.040993" id="Fill-97" fill="#FFFFFF" sketch:type="MSShapeGroup"></path>
                <path d="M203.891412,139.45689 L203.664856,139.773062 L206.738352,142.440241 L209.677009,144.159269 L210.445475,145.787283 L212.2075,146.645883 L212.343069,149.584276 L201.268472,150.443972 L197.428338,157.722883 L198.737981,159.576055 L198.421898,160.344372 L198.240288,162.741434 L198.240288,164.459 L193.495389,160.48071 L192.545313,159.214924 L186.353376,154.558234 L183.098635,151.800407 L181.201407,150.715917 L181.516759,149.85549 L180.749024,148.048007 L181.246718,145.741959 L182.240643,144.293779 L182.646984,142.1248 L182.918121,141.808628 L184.364429,140.180248 L184.816445,139.546807 L186.53389,137.106614 L187.573858,134.077207 L189.969511,134.936538 L189.788631,136.880359 L191.957362,139.231366 L194.851074,136.292972 L196.884602,135.388317 L197.969516,134.39411 L198.828239,134.39411 L200.139343,135.025724 L200.274546,135.794772 L200.998797,136.337931 L201.585651,137.737862 L202.263494,137.737862 L203.891412,139.45689" id="Fill-98" fill="#FFFFFF" sketch:type="MSShapeGroup"></path>
                <path d="M233.044858,99.714931 L234.987398,99.6707034 L235.530403,99.2185586 L235.755863,98.9923034 L235.304212,98.5854828 L236.479748,98.134069 L237.699865,98.7660483 L239.100496,100.485076 L238.784413,101.433959 L239.100496,102.428166 L238.378073,104.824862 L235.168643,109.074731 L234.354501,112.555552 L234.354501,114.40909 L233.360941,115.269152 L232.818667,115.313379 L232.637422,115.856172 L233.360941,116.579897 L234.807249,116.128117 L235.213589,116.353641 L234.943183,117.12269 L233.631713,118.117628 L233.223911,119.022283 L233.405887,119.292766 L234.716626,118.523352 L234.852195,119.067241 L234.309921,120.830497 L232.547164,127.566248 L232.411596,129.647138 L232.094417,129.600717 L232.140824,127.611938 L230.738731,126.075669 L230.964192,123.995145 L230.648109,123.451986 L230.423379,123.678241 L230.1062,124.44729 L228.704473,125.849414 L226.897501,127.205117 L226.67131,128.154366 L224.682728,131.952455 L222.874661,131.274055 L222.060884,131.997414 L221.969896,133.308159 L221.655275,132.946297 L221.123232,125.301138 L220.767684,115.344448 L231.010234,107.492772 L233.089804,104.147559 L233.044858,99.714931" id="Fill-99" fill="#FFFFFF" sketch:type="MSShapeGroup"></path>
                <path d="M152.318367,65.3552138 L150.961951,70.1018207 L149.651942,72.6794483 L148.431826,78.3307103 L149.244506,72.6794483 L150.284108,70.4640483 L149.787876,70.1018207 L149.425386,70.8255448 L148.476406,70.5086414 L147.708672,71.2773241 L148.023658,72.0463724 L147.708672,73.5380483 L148.567029,74.306731 L147.979078,75.301669 L148.069701,77.0196 L147.436438,78.1044552 L148.295892,78.8731379 L147.888455,80.8173241 L147.843875,86.1520483 L148.115012,90.7184552 L148.115012,92.6626414 L147.07541,94.9233655 L147.663726,97.1844552 L148.611975,100.801248 L151.052574,103.287131 L151.821039,104.282434 L151.594848,105.458669 L150.871328,103.469159 L148.792124,101.478917 L149.560954,104.055448 L150.826748,105.458669 L151.188508,105.910083 L153.04079,110.384745 L157.245242,116.218034 L160.092181,120.106772 L162.081494,124.537938 L164.613081,127.566248 L165.92382,128.651469 L171.030844,128.922683 L172.883857,130.098552 L174.194596,130.414724 L176.048341,133.172552 L177.810732,133.850586 L180.115397,132.720407 L183.958819,130.867234 L187.392978,130.14351 L188.070821,130.505372 L189.472183,129.825876 L192.093662,128.832034 L193.585646,127.837462 L197.517499,127.159428 L197.607026,128.425579 L198.693035,128.787076 L199.008753,129.420152 L201.720854,128.922683 L203.664856,127.431372 L202.44547,125.577834 L203.619179,124.4016 L207.280626,121.417517 L207.913157,120.016124 L207.913157,117.303986 L209.72159,115.269152 L209.043382,110.883676 L209.541076,107.040993 L210.624528,105.185993 L214.828614,102.88031 L215.687701,102.745434 L223.597814,100.665641 L225.314529,99.3991241 L233.044858,99.714931 L234.987398,99.6707034 L235.530403,99.2185586 L235.304212,98.5854828 L236.479748,98.134069 L237.699865,98.7660483 L239.100496,100.485076 L238.784413,101.433959 L239.100496,102.428166 L238.378073,104.824862 L235.168643,109.074731 L234.354501,112.555552 L234.354501,114.40909 L233.360941,115.269152 L232.637422,115.856172 L233.360941,116.579897 L234.807249,116.128117 L234.943183,117.12269 L233.631713,118.117628 L233.223911,119.022283 L234.716626,118.523352 L234.852195,119.067241 L234.309921,120.830497 L232.547164,127.566248 L232.411596,129.647138 L232.140824,127.611938 L230.738731,126.075669 L230.964192,123.995145 L230.648109,123.451986 L230.1062,124.44729 L228.704473,125.849414 L226.897501,127.205117 L226.67131,128.154366 L224.682728,131.952455 L222.874661,131.274055 L222.060884,131.997414 L221.969896,133.308159 L219.890691,133.21751 L206.873555,134.212448 L207.009123,139.005841 L203.891412,139.45689 L206.738352,142.440241 L209.677009,144.159269 L210.445475,145.787283 L212.2075,146.645883 L212.343069,149.584276 L201.268472,150.443972 L197.428338,157.722883 L198.737981,159.576055 L198.421898,160.344372 L198.240288,162.741434 L198.240288,164.459 L193.495389,160.48071 L192.545313,159.214924 L186.353376,154.558234 L183.098635,151.800407 L181.201407,150.715917 L178.579197,149.90191 L178.173222,150.53389 L176.545304,150.443972 L175.098996,149.629234 L174.239908,148.862014 L173.291293,149.268103 L169.53959,153.020503 L161.855668,156.004586 L160.138223,156.2758 L157.380079,155.19131 L155.753988,154.467586 L155.301606,153.7 L149.651942,153.517972 L147.843875,152.884531 L145.674778,151.528828 L143.006892,150.624538 L140.83743,148.724945 L139.210608,148.724945 L136.04722,147.911669 L132.385774,146.962055 L130.487084,145.243759 L128.543813,145.018966 L121.175974,142.17049 L116.339722,138.642517 L114.124949,136.382159 L112.950143,136.110945 L112.272301,136.382159 L111.503836,136.654103 L101.107447,132.947028 L98.7128901,130.007903 L97.7182337,128.742848 L93.1980647,126.075669 L91.8423794,125.395807 L89.0849667,124.040103 L84.5651631,117.799993 L83.5701413,114.997938 L83.2540583,114.002269 L84.7453122,113.459476 L86.327554,113.008428 L86.7799363,111.922476 L85.1520177,110.837986 L84.9269228,109.799186 L86.463488,108.531572 L86.9608162,107.040993 L87.2772645,104.870552 L85.4235202,103.423469 L83.7513866,99.4897724 L83.931901,98.5854828 L84.9715033,99.534731 L84.0225236,97.3204276 L84.1584576,95.4654276 L83.0735439,95.2391724 L81.627236,93.0694621 L80.7232022,92.2104966 L80.949028,91.6688 L75.9322616,86.3783034 L73.4916627,82.5356207 L72.6325748,80.9978897 L70.3275444,79.8669793 L69.0164396,77.2458552 L67.5701317,77.2458552 L65.9433093,75.5282897 L65.8073754,74.306731 L65.1744786,73.086269 L65.1744786,72.407869 L63.0050168,71.0064759 L61.4231403,69.8306069 L59.8862098,68.3392966 L59.1626904,67.5706138 L58.6204163,68.3392966 L55.7734772,66.7555103 L55.3664062,65.8972759 L54.552995,64.2696276 L55.0952692,62.7326276 L56.27044,61.2859103 L56.1798174,60.6078759 L55.999303,58.6633241 L54.5979409,56.900069 L53.4227701,57.2166069 L52.0214081,56.6745448 L51.2986195,54.0519586 L49.5808092,53.0120621 L48.3610578,52.6056069 L46.8241273,50.9772276 L46.2814877,48.0837931 L46.5975707,46.184931 L44.6996113,45.6874621 L44.0667146,46.1399724 L42.845867,45.3716552 L41.444505,44.0152207 L40.2696995,41.4825517 L37.6032749,39.2221931 L36.744187,38.2725793 L36.744187,37.1877241 L34.9810653,34.8374483 L34.7552395,32.8472069 L33.6706913,32.1245793 L33.7160026,31.0393586 L31.1847811,26.2912897 L31.0941584,24.1219448 L30.2807473,22.0417862 L29.0606305,19.3289172 L29.4677015,16.7523862 L29.4677015,15.6668 L28.0659741,14.6725931 L27.0716831,14.5815793 L24.5404615,11.7787931 L23.4555479,11.236 L22.1451739,11.9593586 L19.568641,10.1058207 L17.8968728,9.24685517 L16.9471623,8.97564138 L15.90756,14.5815793 L16.1330203,15.8930552 L16.6763906,16.8879931 L17.1733534,24.167269 L18.3934702,26.4729517 L19.5233297,27.5578069 L22.6428675,30.9940345 L24.5404615,34.249331 L24.67603,35.2435379 L26.3028524,35.7859655 L27.2978742,39.3132069 L29.0606305,40.3980621 L29.4223902,42.2512345 L29.7384732,43.0199172 L29.7384732,44.1051379 L30.4159504,46.6824 L32.4048978,48.8071517 L32.9471719,50.5715034 L34.4844679,52.0617172 L35.026742,53.5994483 L35.5693815,54.7753172 L35.9307758,56.4029655 L36.6996065,57.1716483 L36.6996065,55.8605379 L36.3378468,54.9109241 L38.2358062,56.2673586 L38.3267942,57.4424966 L38.8690683,57.9852897 L38.6425118,58.6633241 L39.4106116,60.2917034 L39.5922223,61.9189862 L39.0495828,63.0038414 C39.0495828,63.0038414 40.1490742,65.5243583 40.4958907,66.0328828 C40.8427072,66.5414072 41.6710615,66.8476207 41.6710615,66.8476207 L41.9867791,68.9266828 L43.4787637,71.8201172 L44.0214032,73.2668345 L43.524075,75.9797034 L44.0667146,77.7882828 L46.2361764,79.235 L46.778816,78.737531 L46.8687078,77.6515793 L47.7277957,77.8778345 L49.6261205,80.3648138 L50.4844775,80.6817172 L50.8009259,82.3093655 L51.479134,83.8916897 L53.3770934,86.2887517 L52.6093589,88.5491103 L50.7106687,89.8141655 L49.7160123,90.7645103 L47.7727416,89.4976276 L46.7331392,85.0211379 L45.2868313,83.7557172 L43.7502662,82.806469 L39.2754085,78.2850207 L35.8854645,74.9854966 L35.2076218,73.8549517 L34.6653477,74.2157172 L33.8968825,72.9053379 L32.4958859,70.5086414 L33.4901769,64.5415724 L31.5918521,59.8395586 L30.4159504,59.2964 L24.0884446,53.9163517 L23.4102366,54.2321586 L22.2350657,54.2774828 L20.6082434,52.1984207 L19.6139524,51.8815172 L18.3934702,50.7973931 L16.2236429,49.6668483 L15.7712606,48.7625586 L12.3820474,44.467 L15.0937834,44.8738207 L17.0374195,44.3313931 L17.8968728,45.3716552 L18.890433,45.5975448 L20.2011724,46.1399724 L20.4277289,45.4608414 L19.1162587,44.9195103 L18.0320759,43.7432759 L18.9810556,42.8846759 L19.2072468,41.8893724 L19.4783838,40.2628207 L20.2461183,38.6344414 L18.0320759,35.6960483 L16.4048882,33.7968207 L12.8786448,29.7728414 L11.3870256,28.6426621 L8.49404431,26.0204414 L8.49404431,25.1614759 L7.8618784,24.2575517 L7.90718971,21.2738345 L6.41557049,19.7814276 L6.14443343,15.9837034 L4.83369405,14.8981172 L4.69776011,12.7276759 L3.38665531,10.5576 L2.8443812,9.51806897 L2.75412398,8.43284828 L3.43233204,7.07677931 L2.88969251,6.03651724 L1.9403474,5.49408966 L1.35312739,3.32437931 L0.132279804,1.15393793 L0.35847096,0.294606897 L18.3934702,0.566186207 L17.4894364,2.42045517 L18.9361097,3.14381379 L45.7392136,15.2146552 L61.9657799,15.9837034 L66.7355265,16.1646345 L66.7559897,12.4568276 L79.5933427,12.7276759 L81.627236,15.0340897 L83.3896269,16.6613724 L86.2376622,19.5551724 L88.1809329,21.4090759 L91.3899971,23.7600828 L92.2494504,26.3373448 L93.1527534,27.6480897 L93.2886873,30.3605931 L95.051809,33.1637448 L96.3614522,33.7968207 L98.079628,35.3334552 L99.3903674,35.4697931 L101.062501,36.7805379 L102.057157,37.0067931 L103.910536,38.2725793 L105.084976,38.1373379 L107.300115,35.0172828 L108.294771,32.3954276 L109.650457,31.4911379 L110.73537,31.4012207 L111.729296,30.496931 L114.984402,31.3551655 L117.696138,31.4465448 L121.220555,34.3392483 L124.159578,37.5492207 L127.052194,43.9245724 L127.369008,44.9195103 L129.040776,46.0496897 L131.030089,49.2139724 L131.526686,49.9826552 L132.837425,50.4804897 L133.425011,51.4297379 L133.109659,52.6505655 L133.967285,54.2774828 L133.877759,55.363069 L135.730407,58.7093793 L136.770374,61.1952621 L139.030459,61.692731 L140.340833,62.7783172 L142.736486,63.1855034 L144.452835,64.3610069 L148.386514,64.6771793 L150.14854,65.6256966 L151.730416,64.8124207 L152.318367,65.3552138 Z" id="Stroke-102" stroke="#6C6C6C" sketch:type="MSShapeGroup"></path>
                <path d="M219.631978,117.763076 L220.639059,116.754979 L220.993876,116.340117 L221.585115,116.51849 L222.000956,116.043683 L221.645408,115.689131 L222.297307,114.91789 L222.534095,115.15511 L223.481978,114.088531 L223.304387,113.672938 L223.896723,112.903524 L224.37103,112.845041 L224.490155,112.013855 L225.911249,111.480566 L225.793221,110.947276 L227.511031,110.354772 L228.281689,109.93991 L229.525923,109.880697 L229.407894,109.228979 L229.881471,109.051338 L229.881471,108.398524 L231.065777,108.340041 L231.065777,108.991759 L231.71804,108.991759 L231.658843,107.509952 L232.902347,107.272731 L232.665559,105.672862 L232.370304,105.435276 L232.784318,104.42791 L232.665559,103.539338 L233.791399,103.243634 L234.3841,103.419814 L234.3841,102.294752 L234.087749,102.234807 L233.910889,102.768097 L232.370304,102.768097 L232.251179,101.228172 L232.843515,101.109745 L232.843515,99.9240069" id="Stroke-103" stroke="#6C6F71" stroke-width="0.5" sketch:type="MSShapeGroup"></path>
            </g>
        </g>
    </g>
</svg>