<svg id="Capa_1" data-name="Capa 1" xmlns="http://www.w3.org/2000/svg" viewBox="0 0 1516.24 704.92"><defs><style>.cls-1{fill:#ed1e24;}.cls-2{fill:#2a2b79;}.cls-3,.cls-6{fill:#ed1c24;stroke:#ed1e24;}.cls-3,.cls-4,.cls-6{stroke-miterlimit:10;}.cls-3{stroke-width:1.88px;}.cls-4{fill:none;stroke:#2a2b79;stroke-width:12.09px;}.cls-5{fill:#2d2f78;}.cls-6{stroke-width:0.33px;}</style></defs><title>sensalogo</title><text x="-192.83" y="20.12"/><path class="cls-1" d="M407.43,508.84h39.74V435.61H290.39V620.55H447.17V542.63H407.51c0,17-14.71,32.22-35.68,32.22-23.08,0-40.13-18.45-40.13-48.18,0-34.27,20.81-48.82,40.06-48.82C387.07,477.86,408,490.2,407.43,508.84Z" transform="translate(-192.83 20.12)"/><polygon class="cls-2" points="163.28 554.73 267.02 535.53 286.26 572.14 309.73 499.85 346.82 609.69 389.06 474.03 428.96 592.32 476.84 518.63 432.25 632.22 388.12 553.13 348.22 675.41 310.67 562.75 290.02 620.96 261.38 557.59 163.28 554.73"/><polygon class="cls-1" points="811.37 502.36 811.37 459.17 727.53 459.17 666.16 459.17 666.16 502.36 666.16 519.57 666.16 562.75 666.16 591.54 666.16 634.73 727.53 634.73 811.37 634.73 811.37 591.54 727.53 591.54 727.53 566.39 802.92 566.39 802.92 525.89 727.53 525.89 727.53 502.36 811.37 502.36"/><polygon class="cls-1" points="845.16 630.97 845.16 459.17 892.1 459.17 963.45 552.11 963.45 459.17 1012.9 459.17 1012.9 630.97 962.2 630.97 895.78 537.72 895.78 630.97 845.16 630.97"/><path class="cls-3" d="M1523.66,439h-65.08l-60.72,171.8h58.21l10.18-30.66h55.86l8.13,30.66h58.52Zm-44.39,100.77,13.14-45.68,15.64,45.68h-28.78Z" transform="translate(-192.83 20.12)"/><path class="cls-1" d="M1226.69,552.33h57.89s-2.21,24,35.67,21.2c12.91-.94,32.15-29.1-26.29-37.16-63.75-8.79-56.54-52.42-56.54-52.42s0.21-65.56,117.25-41.78c0,0,31.29,8.14,34.74,44.75l-61.1.31c0.08-23.24-33.88-19.6-34.51-5.77-0.28,6.08-.93,10.85,30.21,18,41.3,9.44,62.59,22.84,67.91,55.7s-36.61,63.53-74.17,62S1240.46,608.35,1226.69,552.33Z" transform="translate(-192.83 20.12)"/><path class="cls-1" d="M674,552.33h57.89s-2.21,24,35.67,21.2c12.91-.94,32.15-29.1-26.29-37.16C677.58,527.58,684.79,484,684.79,484S685,418.4,802,442.18c0,0,31.29,8.14,34.74,44.75l-61.1.31c0.08-23.24-33.88-19.6-34.51-5.77-0.28,6.08-.93,10.85,30.21,18,41.3,9.44,62.59,22.84,67.91,55.7s-36.61,63.53-74.17,62S687.82,608.35,674,552.33Z" transform="translate(-192.83 20.12)"/><rect class="cls-4" x="6.05" y="391.85" width="1504.15" height="307.03" rx="97.56" ry="97.56"/><g id="_5ZyUA7" data-name="5ZyUA7"><path class="cls-5" d="M1596.14,620.23A31,31,0,0,1,1627,589.1c17.72-.06,30.37,14.32,31.12,29.54A31,31,0,1,1,1596.14,620.23Zm57.21-.08a26.18,26.18,0,1,0-26.19,26.26A26.28,26.28,0,0,0,1653.35,620.15Z" transform="translate(-192.83 20.12)"/><path class="cls-6" d="M1613.39,601.4c7.06,0.23,14-.22,20.89.33,4.56,0.36,7.33,3.82,7.7,8.42,0.39,4.82-1.89,8.51-6.21,10-0.76.27-1.55,0.47-2.59,0.79,5.59,3.86,7.87,9.95,11.82,15.5-2.36,0-4.29-.13-6.19,0a3.63,3.63,0,0,1-3.82-2c-2-3.29-4.38-6.41-6.5-9.66-1.94-3-4.75-3.3-8-3v14.46h-7V601.4Zm7.08,14.44c3.7,0,7.19.13,10.68,0,2.15-.11,3.46-1.83,3.55-4s-1.07-4.08-3.09-4.22c-3.67-.25-7.37-0.07-11.14-0.07v8.37Z" transform="translate(-192.83 20.12)"/></g></svg>