<?xml version="1.0" encoding="UTF-8" standalone="no"?>
<svg width="508px" height="108px" viewBox="0 0 508 108" version="1.1" xmlns="http://www.w3.org/2000/svg" xmlns:xlink="http://www.w3.org/1999/xlink" xmlns:sketch="http://www.bohemiancoding.com/sketch/ns">
    <!-- Generator: Sketch 3.4.4 (17249) - http://www.bohemiancoding.com/sketch -->
    <title>Artboard 1</title>
    <desc>Created with Sketch.</desc>
    <defs></defs>
    <g id="Page-1" stroke="none" stroke-width="1" fill="none" fill-rule="evenodd" sketch:type="MSPage">
        <g id="Artboard-1" sketch:type="MSArtboardGroup">
            <g id="sensalogo" sketch:type="MSLayerGroup" transform="translate(4.000000, 4.000000)">
                <g id="Capa_1" sketch:type="MSShapeGroup">
                    <path d="M69.3023256,45.6880519 L82.5049834,45.6880519 L82.5049834,21.4365584 L30.4186047,21.4365584 L30.4186047,82.6829221 L82.5049834,82.6829221 L82.5049834,56.8782468 L69.3289037,56.8782468 C69.3289037,62.5081169 64.4418605,67.5485065 57.4750831,67.5485065 C49.807309,67.5485065 44.1428571,61.4384416 44.1428571,51.5927922 C44.1428571,40.2436364 51.0564784,35.4251299 57.4518272,35.4251299 C62.538206,35.4284416 69.4916944,39.5150649 69.3023256,45.6880519 L69.3023256,45.6880519 Z" id="Shape" fill="#ED1E24"></path>
                    <path d="M52.2524917,54.2222727 L86.717608,47.8638312 L93.1096346,59.9879221 L100.906977,36.0477273 L113.229236,72.4233117 L127.262458,27.4969481 L140.518272,66.6709091 L156.425249,42.2670779 L141.611296,79.8845455 L126.950166,53.6924026 L113.694352,94.1877273 L101.219269,56.8782468 L94.358804,76.1555844 L84.8438538,55.1694156 L52.2524917,54.2222727 L52.2524917,54.2222727 Z" id="Shape" fill="#2A2B79"></path>
                    <path d="M267.564784,36.878961 L267.564784,22.5757792 L239.710963,22.5757792 L219.322259,22.5757792 L219.322259,36.878961 L219.322259,42.5783766 L219.322259,56.8782468 L219.322259,66.4125974 L219.322259,80.7157792 L239.710963,80.7157792 L267.564784,80.7157792 L267.564784,66.4125974 L239.710963,66.4125974 L239.710963,58.0837013 L264.757475,58.0837013 L264.757475,44.6713636 L239.710963,44.6713636 L239.710963,36.878961 L267.564784,36.878961 L267.564784,36.878961 Z" id="Shape" fill="#ED1E24"></path>
                    <path d="M278.790698,79.4705844 L278.790698,22.5757792 L294.385382,22.5757792 L318.089701,53.3546104 L318.089701,22.5757792 L334.518272,22.5757792 L334.518272,79.4705844 L317.674419,79.4705844 L295.607973,48.5890909 L295.607973,79.4705844 L278.790698,79.4705844 L278.790698,79.4705844 Z" id="Shape" fill="#ED1E24"></path>
                    <path d="M440.142857,22.5592208 L418.521595,22.5592208 L398.348837,79.454026 L417.687708,79.454026 L421.069767,69.3003896 L439.627907,69.3003896 L442.328904,79.454026 L461.770764,79.454026 L440.142857,22.5592208 Z M425.395349,55.9311039 L429.760797,40.8033117 L434.956811,55.9311039 L425.395349,55.9311039 L425.395349,55.9311039 Z" id="Shape" fill="#ED1E24"></path>
                    <path d="M176.766439,60.0905835 C176.766439,60.0905835 178.61217,67.3919249 185.390184,67.3919249 C192.168198,67.3919249 199.627907,57.4743506 180.212625,54.8051299 C159.053156,51.8941558 161.448505,37.4618182 161.448505,37.4618182 C161.448505,37.4618182 161.518272,15.7371429 200.388704,23.6123377 C200.388704,23.6123377 210.784053,26.3080519 211.930233,38.4321429 L191.631229,38.5348052 C191.657807,30.8384416 180.375415,32.0438961 180.166113,36.623961 C180.07309,38.6374675 179.857143,40.2171429 190.202658,42.585 C203.923588,45.7112338 210.996678,50.1488961 212.76412,61.0311039 C214.531561,71.9133117 200.601329,82.0702597 188.122924,81.5635714 C175.644518,81.0568831 162.45515,78.6426623 157.863787,60.0905844 C157.86379,60.0905869 176.766439,60.0905835 176.766439,60.0905835 Z" id="Shape" fill="#ED1E24"></path>
                    <path d="M359.540888,60.0552284 C359.540888,60.0552284 361.38662,67.3565699 368.164633,67.3565699 C374.942647,67.3565699 382.402356,57.4389956 362.987074,54.7697748 C341.827606,51.8588008 344.222954,37.4264631 344.222954,37.4264631 C344.222954,37.4264631 344.292722,15.7017878 383.163154,23.5769826 C383.163154,23.5769826 393.558503,26.2726969 394.704682,38.3967878 L374.405679,38.4994501 C374.432257,30.8030865 363.149865,32.008541 362.940562,36.588606 C362.847539,38.6021124 362.631592,40.1817878 372.977107,42.5496449 C386.698037,45.6758787 393.771127,50.113541 395.538569,60.9957488 C397.306011,71.8779566 383.375778,82.0349047 370.897373,81.5282163 C358.418968,81.021528 345.229599,78.6073073 340.638237,60.0552293 C340.638239,60.0552318 359.540888,60.0552284 359.540888,60.0552284 Z" id="Shape-Copy" fill="#ED1E24"></path>
                    <rect id="Rectangle-path" stroke="#2A2B79" stroke-width="4.0166113" x="0.0166112957" y="0.281493506" width="499.717608" height="101.678766" rx="32.4119601"></rect>
                    <g id="_5ZyUA7" transform="translate(464.119601, 72.194805)">
                        <path d="M0.102990033,10.3821429 C0.0790845583,4.71352571 4.66877802,0.0984074894 10.3554817,0.0728571429 C16.2425249,0.052987013 20.4451827,4.81519481 20.6943522,9.85558442 C20.7887131,13.5221734 18.9135604,16.9604221 15.775246,18.8751754 C12.6369316,20.7899288 8.71224005,20.8902903 5.47956479,19.1384547 C2.24688953,17.386619 0.197350802,14.0487318 0.102990033,10.3821429 L0.102990033,10.3821429 Z M19.1096346,10.3556494 C19.0949674,5.57124769 15.1950896,1.70302894 10.3954025,1.71215929 C5.59571551,1.72128965 1.71067697,5.60431751 1.71432884,10.3887401 C1.71798072,15.1731627 5.60894247,19.050293 10.4086379,19.0521429 C15.2163064,19.0357319 19.1060039,15.1480475 19.1096346,10.3556494 L19.1096346,10.3556494 Z" id="Shape" fill="#2D2F78"></path>
                        <path d="M5.83388704,4.14623377 C8.17940199,4.2224026 10.4850498,4.07337662 12.7740864,4.25551948 C14.2890365,4.37474026 15.2093023,5.52058442 15.3322259,7.04396104 C15.461794,8.64019481 14.7043189,9.86220779 13.269103,10.3556494 C13.0166113,10.4450649 12.7541528,10.5112987 12.4086379,10.6172727 C14.2657807,11.8955844 15.0232558,13.9124026 16.3355482,15.7503896 C15.551495,15.7503896 14.910299,15.7073377 14.2790698,15.7503896 C13.7560671,15.8311085 13.2413803,15.5624964 13.0099668,15.0880519 C12.345515,13.9985065 11.5548173,12.9652597 10.8504983,11.888961 C10.2059801,10.8954545 9.27242525,10.7961039 8.19269103,10.8954545 L8.19269103,15.6841558 L5.86710963,15.6841558 L5.86710963,4.14623377 L5.83388704,4.14623377 Z M8.18604651,8.92831169 C9.41528239,8.92831169 10.5747508,8.97136364 11.7342193,8.92831169 C12.448505,8.89188312 12.8837209,8.32227273 12.9136213,7.60363636 C12.9435216,6.885 12.5581395,6.25246753 11.8870432,6.2061039 C10.6677741,6.12331169 9.43853821,6.18292208 8.18604651,6.18292208 L8.18604651,8.95480519 L8.18604651,8.92831169 Z" id="Shape" fill="#000000"></path>
                    </g>
                </g>
            </g>
        </g>
    </g>
</svg>