<?xml version="1.0" encoding="UTF-8" standalone="no"?>
<svg width="502px" height="109px" viewBox="0 0 502 109" version="1.1" xmlns="http://www.w3.org/2000/svg" xmlns:xlink="http://www.w3.org/1999/xlink" xmlns:sketch="http://www.bohemiancoding.com/sketch/ns">
    <!-- Generator: Sketch 3.4.4 (17249) - http://www.bohemiancoding.com/sketch -->
    <title>Artboard 1</title>
    <desc>Created with Sketch.</desc>
    <defs></defs>
    <g id="Page-1" stroke="none" stroke-width="1" fill="none" fill-rule="evenodd" sketch:type="MSPage">
        <g id="Artboard-1" sketch:type="MSArtboardGroup">
            <g id="sensalogo" sketch:type="MSLayerGroup" transform="translate(2.000000, 3.000000)">
                <g id="Capa_1" sketch:type="MSShapeGroup">
                    <path d="M69.0251163,45.6880519 L82.1749635,45.6880519 L82.1749635,21.4365584 L30.2969302,21.4365584 L30.2969302,82.6829221 L82.1749635,82.6829221 L82.1749635,56.8782468 L69.051588,56.8782468 C69.051588,62.5081169 64.184093,67.5485065 57.2451827,67.5485065 C49.6080797,67.5485065 43.9662857,61.4384416 43.9662857,51.5927922 C43.9662857,40.2436364 50.8522525,35.4251299 57.2220199,35.4251299 C62.2880532,35.4284416 69.2137276,39.5150649 69.0251163,45.6880519 L69.0251163,45.6880519 Z" id="Shape" fill="#ED1E24"></path>
                    <path d="M52.0434817,54.2222727 L86.3707375,47.8638312 L92.737196,59.9879221 L100.503349,36.0477273 L112.776319,72.4233117 L126.753409,27.4969481 L139.956199,66.6709091 L155.799548,42.2670779 L141.04485,79.8845455 L126.442365,53.6924026 L113.239575,94.1877273 L100.814392,56.8782468 L93.9813688,76.1555844 L84.5044784,55.1694156 L52.0434817,54.2222727 L52.0434817,54.2222727 Z" id="Shape" fill="#2A2B79"></path>
                    <path d="M266.494525,36.878961 L266.494525,22.5757792 L238.75212,22.5757792 L218.44497,22.5757792 L218.44497,36.878961 L218.44497,42.5783766 L218.44497,56.8782468 L218.44497,66.4125974 L218.44497,80.7157792 L238.75212,80.7157792 L266.494525,80.7157792 L266.494525,66.4125974 L238.75212,66.4125974 L238.75212,58.0837013 L263.698445,58.0837013 L263.698445,44.6713636 L238.75212,44.6713636 L238.75212,36.878961 L266.494525,36.878961 L266.494525,36.878961 Z" id="Shape" fill="#ED1E24"></path>
                    <path d="M277.675535,79.4705844 L277.675535,22.5757792 L293.207841,22.5757792 L316.817342,53.3546104 L316.817342,22.5757792 L333.180199,22.5757792 L333.180199,79.4705844 L316.403721,79.4705844 L294.425542,48.5890909 L294.425542,79.4705844 L277.675535,79.4705844 L277.675535,79.4705844 Z" id="Shape" fill="#ED1E24"></path>
                    <path d="M438.382286,22.5592208 L416.847508,22.5592208 L396.755442,79.454026 L416.016957,79.454026 L419.385488,69.3003896 L437.869395,69.3003896 L440.559588,79.454026 L459.923681,79.454026 L438.382286,22.5592208 Z M423.693767,55.9311039 L428.041754,40.8033117 L433.216983,55.9311039 L423.693767,55.9311039 L423.693767,55.9311039 Z" id="Shape" fill="#ED1E24"></path>
                    <path d="M176.403953,60.0905835 C176.403953,60.0905835 176.766143,67.0472545 185.511752,67.3585534 C194.257361,67.6698523 198.829395,57.4743506 179.491774,54.8051299 C158.416944,51.8941558 160.802711,37.4618182 160.802711,37.4618182 C160.802711,37.4618182 160.872199,15.7371429 199.58715,23.6123377 C199.58715,23.6123377 209.940917,26.3080519 211.082512,38.4321429 L190.864704,38.5348052 C190.891176,30.8384416 179.653914,32.0438961 179.445449,36.623961 C179.352797,38.6374675 179.137714,40.2171429 189.441847,42.585 C203.107894,45.7112338 210.152691,50.1488961 211.913063,61.0311039 C213.673435,71.9133117 199.798924,82.0702597 187.370432,81.5635714 C174.94194,81.0568831 161.805329,78.6426623 157.232332,60.0905844 C157.232331,60.0905858 176.403953,60.0905835 176.403953,60.0905835 Z" id="Shape" fill="#ED1E24"></path>
                    <path d="M359.439995,60.0552284 C359.439995,60.0552284 359.802186,67.0118994 368.547795,67.3231983 C377.293404,67.6344972 381.865438,57.4389956 362.527817,54.7697748 C341.452986,51.8588008 343.838754,37.4264631 343.838754,37.4264631 C343.838754,37.4264631 343.908242,15.7017878 382.623192,23.5769826 C382.623192,23.5769826 392.97696,26.2726969 394.118554,38.3967878 L373.900747,38.4994501 C373.927219,30.8030865 362.689956,32.008541 362.481491,36.588606 C362.38884,38.6021124 362.173757,40.1817878 372.47789,42.5496449 C386.143936,45.6758787 393.188734,50.113541 394.949106,60.9957488 C396.709478,71.8779566 382.834966,82.0349047 370.406474,81.5282163 C357.977983,81.021528 344.841372,78.6073073 340.268375,60.0552293 C340.268374,60.0552307 359.439996,60.0552284 359.439995,60.0552284 Z" id="Shape-Copy" fill="#ED1E24"></path>
                    <rect id="Rectangle-path" stroke="#2A2B79" stroke-width="4.00054485" x="0.0165448505" y="0.281493506" width="497.718738" height="101.678766" rx="32.2823123"></rect>
                    <g id="_5ZyUA7" transform="translate(462.263123, 72.194805)">
                        <path d="M0.102578073,10.3821429 C0.0787682201,4.71352571 4.65010291,0.0984074894 10.3140598,0.0728571429 C16.1775548,0.052987013 20.363402,4.81519481 20.6115748,9.85558442 C20.7055582,13.5221734 18.8379062,16.9604221 15.712145,18.8751754 C12.5863838,20.7899288 8.67739109,20.8902903 5.45764653,19.1384547 C2.23790197,17.386619 0.196561399,14.0487318 0.102578073,10.3821429 L0.102578073,10.3821429 Z M19.033196,10.3556494 C19.0185876,5.57124769 15.1343092,1.70302894 10.3538209,1.71215929 C5.57333265,1.72128965 1.70383426,5.60431751 1.70747153,10.3887401 C1.71110879,15.1731627 5.5865067,19.050293 10.3670033,19.0521429 C15.1554412,19.0357319 19.0295799,15.1480475 19.033196,10.3556494 L19.033196,10.3556494 Z" id="Shape" fill="#2D2F78"></path>
                        <path d="M5.8105515,4.14623377 C8.14668439,4.2224026 10.4431096,4.07337662 12.72299,4.25551948 C14.2318804,4.37474026 15.1484651,5.52058442 15.270897,7.04396104 C15.3999468,8.64019481 14.6455017,9.86220779 13.2160266,10.3556494 C12.9645449,10.4450649 12.7031362,10.5112987 12.3590033,10.6172727 C14.2087176,11.8955844 14.9631628,13.9124026 16.270206,15.7503896 C15.489289,15.7503896 14.8506578,15.7073377 14.2219535,15.7503896 C13.7010428,15.8311085 13.1884148,15.5624964 12.9579269,15.0880519 C12.2961329,13.9985065 11.508598,12.9652597 10.8070963,11.888961 C10.1651561,10.8954545 9.23533555,10.7961039 8.15992027,10.8954545 L8.15992027,15.6841558 L5.8436412,15.6841558 L5.8436412,4.14623377 L5.8105515,4.14623377 Z M8.15330233,8.92831169 C9.37762126,8.92831169 10.5324518,8.97136364 11.6872824,8.92831169 C12.398711,8.89188312 12.832186,8.32227273 12.8619668,7.60363636 C12.8917475,6.885 12.507907,6.25246753 11.839495,6.2061039 C10.625103,6.12331169 9.40078405,6.18292208 8.15330233,6.18292208 L8.15330233,8.95480519 L8.15330233,8.92831169 Z" id="Shape" fill="#000000"></path>
                    </g>
                </g>
            </g>
        </g>
    </g>
</svg>