<?xml version="1.0" encoding="UTF-8" standalone="no"?>
<svg width="505px" height="105px" viewBox="0 0 505 105" version="1.1" xmlns="http://www.w3.org/2000/svg" xmlns:xlink="http://www.w3.org/1999/xlink" xmlns:sketch="http://www.bohemiancoding.com/sketch/ns">
    <!-- Generator: Sketch 3.4.4 (17249) - http://www.bohemiancoding.com/sketch -->
    <title>Artboard 1</title>
    <desc>Created with Sketch.</desc>
    <defs></defs>
    <g id="Page-1" stroke="none" stroke-width="1" fill="none" fill-rule="evenodd" sketch:type="MSPage">
        <g id="Artboard-1" sketch:type="MSArtboardGroup">
            <g id="Page-1" sketch:type="MSLayerGroup" transform="translate(8.000000, 2.000000)">
                <path d="M58.1005659,43.1882906 L71.5071037,43.1882906 L71.5071037,18.4027179 L18.615522,18.4027179 L18.615522,80.9976838 L71.5071037,80.9976838 L71.5071037,54.6245983 L58.1272619,54.6245983 C58.1272619,60.3790085 53.1652583,65.5300085 46.0899684,65.5300085 C38.3042214,65.5300085 32.5516731,59.2852735 32.5516731,49.2232564 C32.5516731,37.6237949 39.57271,32.6989658 46.066717,32.6989658 C51.2319543,32.7024188 58.2926046,36.8796752 58.1005659,43.1882906" id="Fill-1" fill="#EC2426" sketch:type="MSShapeGroup"></path>
                <path d="M40.7869455,51.910547 L75.7853462,45.4120171 L82.2759086,57.8030769 L90.1942742,33.3360427 L102.706928,70.5126752 L116.957402,24.5965214 L130.418193,64.633094 L146.571831,39.6921368 L131.528228,78.1377436 L116.640496,51.3692906 L103.179705,92.7559829 L90.511181,54.6245983 L83.5443972,74.3265043 L73.8830439,52.8782479 L40.7869455,51.910547 Z" id="Fill-3" fill="#2C2F77" sketch:type="MSShapeGroup"></path>
                <path d="M259.430974,34.1852197 L259.430974,19.5669803 L231.146176,19.5669803 L210.442169,19.5669803 L210.442169,34.1852197 L210.442169,40.0104162 L210.442169,54.6252026 L210.442169,64.3695444 L210.442169,78.9877838 L231.146176,78.9877838 L259.430974,78.9877838 L259.430974,64.3695444 L231.146176,64.3695444 L231.146176,55.8570573 L256.580534,55.8570573 L256.580534,42.1495444 L231.146176,42.1495444 L231.146176,34.1852197 L259.430974,34.1852197 Z" id="Fill-5" fill="#EC2426" sketch:type="MSShapeGroup"></path>
                <path d="M270.830578,77.7149248 L270.830578,19.567412 L286.666448,19.567412 L310.737591,51.0241641 L310.737591,19.567412 L327.420842,19.567412 L327.420842,77.7149248 L310.315622,77.7149248 L287.908241,46.1537197 L287.908241,77.7149248 L270.830578,77.7149248 Z" id="Fill-7" fill="#EC2426" sketch:type="MSShapeGroup"></path>
                <path d="M419.703773,53.6569838 L424.137025,38.1962145 L429.413351,53.6569838 L419.703773,53.6569838 Z M434.679344,19.5500607 L412.724072,19.5500607 L392.2388,77.6975735 L411.876691,77.6975735 L415.310996,67.3204709 L434.15662,67.3204709 L436.899415,77.6975735 L456.642367,77.6975735 L434.679344,19.5500607 Z" id="Fill-9" fill="#EC2426" sketch:type="MSShapeGroup"></path>
                <path d="M167.57888,57.9080479 C167.57888,57.9080479 167.948318,65.0177573 176.864768,65.3362957 C185.781218,65.6539709 190.442677,55.2345692 170.727281,52.5058427 C149.24048,49.5310906 151.672395,34.7807744 151.672395,34.7807744 C151.672395,34.7807744 151.743011,12.5780393 191.215137,20.6260991 C191.215137,20.6260991 201.771236,23.3815863 202.935524,35.7726462 L182.321938,35.8770991 C182.349496,28.0120479 170.892624,29.2439026 170.679917,33.9244325 C170.58519,35.9824154 170.366455,37.5966889 180.871745,40.0172359 C194.805313,43.2121162 201.987387,47.7476205 203.782044,58.869706 C205.576701,69.9909282 191.431288,80.3714838 178.760181,79.8543983 C166.088213,79.3364496 152.694592,76.8684239 148.032272,57.9080479 L167.57888,57.9080479" id="Fill-11" fill="#EC2426" sketch:type="MSShapeGroup"></path>
                <path d="M354.193701,57.8719641 C354.193701,57.8719641 354.563139,64.9816735 363.479589,65.300212 C372.396039,65.6178872 377.057497,55.1984855 357.342102,52.469759 C335.855301,49.4950068 338.287216,34.7446906 338.287216,34.7446906 C338.287216,34.7446906 338.357831,12.5419556 377.829958,20.5900154 C377.829958,20.5900154 388.386056,23.3455026 389.550344,35.7365624 L368.93762,35.8410154 C368.964316,27.9759641 357.507445,29.2078188 357.294738,33.8883487 C357.200011,35.9463316 356.981276,37.5606051 367.486566,39.9811521 C381.420134,43.1760325 388.602207,47.7115368 390.396865,58.8336222 C392.191522,69.9548444 378.046109,80.3354 365.374141,79.8174513 C352.703033,79.3003658 339.309413,76.8323402 334.647093,57.8719641 L354.193701,57.8719641 Z" id="Fill-13" fill="#EC2426" sketch:type="MSShapeGroup"></path>
                <path d="M478.432555,80.8625855 C478.417916,75.9731496 474.457441,72.0194744 469.583276,72.0289701 C464.709972,72.0384658 460.764137,76.0068162 460.768443,80.8962521 C460.771888,85.7865513 464.722889,89.748859 469.597054,89.7505855 C474.47897,89.7341838 478.429111,85.7606538 478.432555,80.8625855 M459.132239,80.8893462 C459.107265,75.0960897 463.767863,70.3793034 469.542801,70.353406 C475.520974,70.332688 479.788882,75.1996795 480.042063,80.3515427 C480.137652,84.0989017 478.233627,87.6131838 475.046475,89.5701667 C471.859322,91.5262863 467.874735,91.6290128 464.591993,89.8386368 C461.309251,88.0482607 459.227828,84.6367051 459.132239,80.8893462" id="Fill-15" fill="#2B3178" sketch:type="MSShapeGroup"></path>
                <path d="M467.339954,79.4038692 C468.587775,79.4038692 469.765842,79.4478949 470.943047,79.4038692 C471.668144,79.3667496 472.109919,78.7840573 472.140921,78.0502966 C472.171062,77.3156726 471.780095,76.6691 471.098056,76.6216214 C469.859708,76.5370231 468.611888,76.5983137 467.339954,76.5983137 L467.339954,79.4306299 L467.339954,79.4038692 Z M464.951097,74.5161598 C467.333065,74.5947154 469.674559,74.4419205 471.99883,74.6283821 C473.537722,74.7501 474.472081,75.9206641 474.596949,77.4779632 C474.727845,79.1095017 473.95883,80.3586214 472.501747,80.8627581 C472.245121,80.9542624 471.979023,81.0215957 471.62767,81.130365 C473.51361,82.436459 474.282626,84.4978949 475.615701,86.3763222 C474.819128,86.3763222 474.168091,86.3322966 473.527388,86.3763222 C472.996053,86.4583308 472.473329,86.1838179 472.238232,85.6995359 C471.563944,84.5859462 470.760482,83.5293308 470.045719,82.429553 C469.391237,81.4143735 468.4431,81.3125103 467.346844,81.4143735 L467.346844,86.3081256 L464.985543,86.3081256 L464.985543,74.5161598 L464.951097,74.5161598 Z" id="Fill-17" fill="#EC2426" sketch:type="MSShapeGroup"></path>
                <path d="M479.211302,100.999741 L10.333833,100.999741 C4.6501775,100.999741 -8.6115993e-05,96.3382026 -8.6115993e-05,90.6407667 L-8.6115993e-05,10.3638949 C-8.6115993e-05,4.66645897 4.6501775,0.00492051282 10.333833,0.00492051282 L479.211302,0.00492051282 C484.894958,0.00492051282 489.545221,4.66645897 489.545221,10.3638949 L489.545221,90.6407667 C489.545221,96.3382026 484.894958,100.999741 479.211302,100.999741 L479.211302,100.999741 Z" id="Stroke-19" stroke="#2C2F77" stroke-width="4.001" sketch:type="MSShapeGroup"></path>
            </g>
        </g>
    </g>
</svg>