<?xml version="1.0" encoding="UTF-8" standalone="no"?>
<svg width="304px" height="62px" viewBox="0 0 304 62" version="1.1" xmlns="http://www.w3.org/2000/svg" xmlns:xlink="http://www.w3.org/1999/xlink" xmlns:sketch="http://www.bohemiancoding.com/sketch/ns">
    <!-- Generator: Sketch 3.4.4 (17249) - http://www.bohemiancoding.com/sketch -->
    <title>sensalogo-01</title>
    <desc>Created with Sketch.</desc>
    <defs></defs>
    <g id="Page-1" stroke="none" stroke-width="1" fill="none" fill-rule="evenodd" sketch:type="MSPage">
        <g id="Desktop-HD-Copy" sketch:type="MSArtboardGroup" transform="translate(-153.000000, -31.000000)">
            <g id="sensalogo-01" sketch:type="MSLayerGroup" transform="translate(155.000000, 33.000000)">
                <g id="Capa_2" sketch:type="MSShapeGroup">
                    <path d="M34.4235172,23.1656065 L42.6852237,23.1656065 L42.6852237,7.91989218 L10.0926119,7.91989218 L10.0926119,46.4312668 L42.6836629,46.4312668 L42.6836629,30.2022102 L34.4391259,30.2022102 C34.4391259,33.7416173 31.3798127,36.9105121 27.0218522,36.9105121 C22.2252862,36.9105121 18.6805411,33.0678167 18.6805411,26.8785445 C18.6805411,19.7434501 23.0072841,16.7168194 27.0078044,16.7168194 C30.1904266,16.7152561 34.5421436,19.2853908 34.4235172,23.1656065 L34.4235172,23.1656065 Z" id="Shape" fill="#ED1E24"></path>
                    <path d="M23.7549428,28.534124 L45.3184183,24.5350943 L49.3204995,32.1579515 L54.198231,17.1060916 L61.9073881,39.9762264 L70.6888658,11.7313208 L78.9833507,36.3602156 L88.9370447,21.0160108 L79.6670135,44.6678167 L70.4937565,28.1995687 L62.2008325,53.6585984 L54.3933403,30.2022102 L50.1009365,42.3212399 L44.1477627,29.1281941 L23.7549428,28.534124 L23.7549428,28.534124 Z" id="Shape" fill="#2A2B79"></path>
                    <path d="M158.477107,17.628248 L158.477107,8.63590296 L141.049948,8.63590296 L128.292924,8.63590296 L128.292924,17.628248 L128.292924,21.2114286 L128.292924,30.2022102 L128.292924,36.197628 L128.292924,45.1884097 L141.049948,45.1884097 L158.477107,45.1884097 L158.477107,36.197628 L141.049948,36.197628 L141.049948,30.2022102 L158.477107,30.2022102 L158.477107,21.2114286 L141.049948,21.2114286 L141.049948,17.628248 L158.477107,17.628248 L158.477107,17.628248 Z" id="Shape" fill="#ED1E24"></path>
                    <path d="M165.502601,44.4067385 L165.502601,8.63590296 L175.261186,8.63590296 L190.092612,27.9869542 L190.092612,8.63590296 L200.370968,8.63590296 L200.370968,44.4067385 L189.831946,44.4067385 L176.024454,24.990027 L176.024454,44.4067385 L165.502601,44.4067385 L165.502601,44.4067385 Z" id="Shape" fill="#ED1E24"></path>
                    <path d="M266.461498,8.63590296 L252.933403,8.63590296 L240.310614,44.3989218 L252.41051,44.3989218 L254.525494,38.0157951 L266.136837,38.0157951 L267.828824,44.3989218 L279.994277,44.3989218 L266.461498,8.63590296 Z M257.23205,29.6159569 L259.96358,20.1045822 L263.21488,29.6159569 L257.23205,29.6159569 L257.23205,29.6159569 Z" id="Shape" fill="#ED1E24"></path>
                    <path d="M216.763267,32.2220485 C216.763267,32.2220485 216.30281,37.2106739 224.17898,36.6369272 C226.862123,36.4415094 230.862643,30.5774124 218.715921,28.8999461 C205.4641,27.0692722 206.962539,17.9862534 206.962539,17.9862534 C206.962539,17.9862534 207.006243,4.33671159 231.335588,9.28781671 C231.335588,9.28781671 237.841311,10.9824798 238.556191,18.6053369 L225.855359,18.6709973 C225.870968,13.8340162 218.812695,14.5906739 218.675338,17.4703504 C218.617586,18.7350943 218.48179,19.7293801 224.954735,21.2129919 C233.539542,23.1781132 237.96462,25.9686792 239.07128,32.8098652 C240.17794,39.6510512 231.460458,46.0357412 223.654527,45.710566 C215.848595,45.3853908 207.596254,43.8861456 204.728928,32.2220485 L216.763267,32.2220485 Z" id="Shape" fill="#ED1E24"></path>
                    <path d="M101.881374,32.2220485 C100.960667,31.2332444 104.872206,36.9592616 109.297086,36.6369272 C111.980229,36.4415094 115.980749,30.5774124 103.834027,28.8999461 C90.582206,27.0692722 92.0806452,17.9862534 92.0806452,17.9862534 C92.0806452,17.9862534 92.1243496,4.33671159 116.453694,9.28781671 C116.453694,9.28781671 122.959417,10.9824798 123.674298,18.6053369 L110.973465,18.6709973 C110.989074,13.8340162 103.930801,14.5906739 103.793444,17.4703504 C103.735692,18.7350943 103.599896,19.7293801 110.072841,21.2129919 C118.657648,23.1781132 123.082726,25.9686792 124.189386,32.8098652 C125.296046,39.6510512 116.578564,46.0357412 108.772633,45.710566 C100.966701,45.3853908 92.7159209,43.8861456 89.8470343,32.2220485 L101.881374,32.2220485 Z" id="Shape" fill="#ED1E24"></path>
                    <rect id="Rectangle-path" stroke="#2A2B79" stroke-width="2.3328" x="0.140478668" y="0.101617251" width="299.759625" height="57.8577358" rx="3.7309248"></rect>
                    <g id="_5ZyUA7" transform="translate(281.425598, 39.865229)">
                        <path d="M0.104578564,6.49412399 C0.094212704,2.92868534 2.96934179,0.0287205138 6.52913632,0.0140700809 C10.2127992,0.00156334232 12.8413111,2.99536388 12.9989594,6.1658221 C13.114024,8.50797582 11.9530755,10.7287194 9.96560205,11.9682405 C7.97812861,13.2077617 5.47614983,13.2714642 3.42836464,12.1346841 C1.38057945,10.9979041 0.108476002,8.83910811 0.104578564,6.49412399 L0.104578564,6.49412399 Z M11.9968783,6.47692722 C11.9848217,3.47016171 9.54371425,1.04126624 6.54168164,1.04902106 C3.53964902,1.05677587 1.11108293,3.49825062 1.11451153,6.50503842 C1.11794013,9.51182622 3.55206784,11.9477386 6.5541103,11.9486253 C9.56334735,11.9374304 11.996899,9.49094361 11.9968783,6.47692722 L11.9968783,6.47692722 Z" id="Shape" fill="#2D2F78"></path>
                        <path d="M3.68990635,2.57326146 C5.15712799,2.62016173 6.59937565,2.52792453 8.03225806,2.64204852 C8.98126951,2.71708895 9.55723205,3.43778976 9.63371488,4.39455526 C9.71488033,5.39822102 9.24037461,6.1658221 8.34287201,6.48474394 C8.1867846,6.54102426 8.01977107,6.5832345 7.80437045,6.64889488 C8.96566077,7.45245283 9.44172737,8.72032345 10.2611863,9.87563342 C9.7710718,9.87563342 9.36992716,9.8490566 8.97346514,9.87563342 C8.57700312,9.90221024 8.37877211,9.77557951 8.17898023,9.453531 C7.75442248,8.76722372 7.26899063,8.12 6.82726327,7.44307278 C6.42299688,6.81773585 5.83922997,6.75520216 5.15556712,6.82555256 L5.15556712,9.8490566 L3.69146722,9.8490566 L3.69146722,2.57951482 L3.68990635,2.57326146 Z M5.16337149,5.57956873 C5.93132154,5.57956873 6.65868887,5.60614555 7.38293444,5.57018868 C7.83090531,5.54830189 8.1024974,5.1902965 8.12122789,4.73067385 C8.13995838,4.27105121 7.89958377,3.88021563 7.47970864,3.85207547 C6.71644121,3.80048518 5.94693028,3.83800539 5.16493236,3.83800539 L5.16493236,5.57956873 L5.16337149,5.57956873 Z" id="Shape" fill="#ED1E24"></path>
                    </g>
                </g>
            </g>
        </g>
    </g>
</svg>